<svg width="29" height="29" viewBox="0 0 29 29" fill="none" xmlns="http://www.w3.org/2000/svg">
<rect x="0.335938" y="0.285156" width="28" height="28" rx="7" fill="#24A2EE" fill-opacity="0.15"/>
<path d="M14.8516 17.2344L17.1836 20.7738L19.3378 19.5665L16.2753 14.8984L14.8516 17.2344Z" fill="#24A2EE"/>
<path d="M21.5799 18.1861L21.5783 17.1844L18.3078 11.9629L17.0938 14.073L20.251 19.307L21.3931 18.629C21.4484 18.583 21.4936 18.5256 21.5258 18.4606C21.558 18.3955 21.5765 18.3242 21.58 18.2513L21.5799 18.1861Z" fill="#24A2EE"/>
<path d="M7.375 19.0926L8.92994 20.0415L14.1044 11.253L13.2262 11.2289C12.478 11.2178 11.672 11.4237 11.302 12.0634L8.36366 16.8868L7.37557 18.4953V19.093L7.375 19.0926Z" fill="#24A2EE"/>
<path d="M17.8498 11.2285L15.3288 11.2374L9.625 20.3936L11.6186 21.5103L12.1607 20.6158L17.8498 11.2285Z" fill="#24A2EE"/>
<path d="M22.3291 11.5338C22.318 11.2917 22.2458 11.0558 22.1188 10.8464C21.9918 10.6371 21.8138 10.4607 21.6001 10.3323L15.5387 6.97781C15.3223 6.87548 15.0844 6.82227 14.8433 6.82227C14.6022 6.82227 14.3643 6.87548 14.1479 6.97781C14.0973 7.00233 8.2532 10.2641 8.2532 10.2641C8.172 10.3017 8.09434 10.3459 8.02109 10.3963C7.83132 10.5262 7.67461 10.6957 7.56271 10.8923C7.45081 11.0888 7.38663 11.3071 7.375 11.5309V18.4783L8.41592 16.9385L8.4079 11.5782C8.41277 11.5048 8.43452 11.4332 8.47157 11.3688C8.50862 11.3044 8.56006 11.2486 8.62218 11.2057C8.6497 11.1867 14.5936 7.87567 14.6125 7.86658C14.6836 7.83325 14.7617 7.81575 14.8408 7.81539C14.92 7.81503 14.9982 7.83182 15.0696 7.86451L21.0528 11.1765C21.1224 11.2191 21.1804 11.2772 21.2219 11.3459C21.2633 11.4146 21.287 11.4919 21.2909 11.5712V18.2116C21.2894 18.2805 21.2727 18.3482 21.2419 18.4103C21.211 18.4725 21.1667 18.5275 21.112 18.5719L19.9514 19.2187L19.3532 19.5526L17.2139 20.7457L15.0444 21.9557C14.9245 21.9965 14.7932 21.994 14.6751 21.9487L12.1083 20.528L11.584 21.3837L13.8908 22.6618C13.9671 22.7035 14.0351 22.7405 14.0908 22.7707C14.1772 22.8168 14.2361 22.8484 14.2568 22.8581C14.4498 22.9395 14.6584 22.9808 14.8691 22.9793C15.0624 22.9796 15.2539 22.9449 15.4338 22.8771L21.7352 19.3653C21.913 19.2322 22.0583 19.0633 22.1609 18.8703C22.2634 18.6773 22.3208 18.4651 22.3289 18.2485L22.3291 11.5338Z" fill="#24A2EE"/>
</svg>
