<svg width="29" height="29" viewBox="0 0 29 29" fill="none" xmlns="http://www.w3.org/2000/svg">
<rect x="0.335938" y="0.285156" width="28" height="28" rx="7" fill="#6FD24D" fill-opacity="0.15"/>
<path d="M14.3359 7.93099C14.6456 7.93 14.9493 8.01573 15.2128 8.17847C15.4762 8.34122 15.6888 8.57447 15.8265 8.85182L20.5138 18.2268C20.641 18.4809 20.701 18.7633 20.6883 19.0472C20.6756 19.3311 20.5905 19.607 20.4412 19.8487C20.2918 20.0904 20.0832 20.29 19.835 20.4283C19.5868 20.5667 19.3074 20.6393 19.0232 20.6393H9.64864C9.3645 20.6393 9.08507 20.5667 8.8369 20.4283C8.58872 20.29 8.38005 20.0904 8.2307 19.8487C8.08134 19.607 7.99627 19.3311 7.98356 19.0472C7.97085 18.7633 8.03093 18.4809 8.15808 18.2268L12.8454 8.85182C12.9831 8.57447 13.1957 8.34122 13.4591 8.17847C13.7226 8.01573 14.0263 7.93 14.3359 7.93099ZM14.3359 6.78516C13.8137 6.7851 13.3018 6.93046 12.8575 7.20496C12.4132 7.47945 12.0541 7.87224 11.8204 8.33932L7.13312 17.7143C6.9186 18.1431 6.81728 18.6197 6.83876 19.0987C6.86025 19.5777 7.00384 20.0433 7.25589 20.4512C7.50794 20.859 7.86008 21.1957 8.27887 21.4292C8.69765 21.6627 9.16917 21.7852 9.64864 21.7852H19.0232C19.5027 21.7852 19.9742 21.6627 20.393 21.4292C20.8118 21.1957 21.1639 20.859 21.416 20.4512C21.668 20.0433 21.8116 19.5777 21.8331 19.0987C21.8546 18.6197 21.7533 18.1431 21.5388 17.7143L16.8515 8.33932C16.6178 7.87224 16.2587 7.47945 15.8144 7.20496C15.3701 6.93046 14.8582 6.7851 14.3359 6.78516Z" fill="#6FD24D"/>
</svg>
