<svg width="29" height="29" viewBox="0 0 29 29" fill="none" xmlns="http://www.w3.org/2000/svg">
<rect x="0.335938" y="0.285156" width="28" height="28" rx="7" fill="#E13F40" fill-opacity="0.12"/>
<path d="M14.8588 6.50781C10.2792 6.50781 6.5625 10.2246 6.5625 14.8041C6.5625 19.3837 10.2792 23.1004 14.8588 23.1004C19.4384 23.1004 23.1551 19.3837 23.1551 14.8041C23.1551 10.2246 19.4384 6.50781 14.8588 6.50781ZM13.7968 17.6331C13.5231 18.0729 13.0419 18.3383 12.5192 18.3383H10.2461C9.95569 18.3383 9.77316 18.0231 9.92249 17.7742L14.5767 9.80144C14.7094 9.56915 15.0413 9.55255 15.1989 9.76826L16.4931 11.5022C16.8665 12 16.8914 12.672 16.5678 13.2029L13.7968 17.6331ZM19.4632 18.3383H16.2775C15.9871 18.3383 15.8046 18.0231 15.9539 17.7659L17.5468 15.1111C17.6961 14.8705 18.0446 14.8705 18.1939 15.1111L19.7868 17.7659C19.9361 18.0148 19.7536 18.3383 19.4632 18.3383Z" fill="#E13F40"/>
</svg>
