<svg width="29" height="29" viewBox="0 0 29 29" fill="none" xmlns="http://www.w3.org/2000/svg">
<rect x="0.335938" y="0.285156" width="28" height="28" rx="7" fill="#8109EA" fill-opacity="0.15"/>
<path fill-rule="evenodd" clip-rule="evenodd" d="M11.2668 6.31674C11.2291 6.33218 11.193 6.35065 11.1867 6.35779C11.1804 6.36494 11.1175 6.40197 11.0468 6.44007C10.9761 6.4782 10.8968 6.53114 10.8705 6.55772C10.8442 6.5843 10.8159 6.60607 10.8076 6.60607C10.767 6.60607 10.5994 6.82739 10.5305 6.97216C10.5094 7.01652 10.4837 7.05283 10.4734 7.05283C10.4632 7.05283 10.4548 7.06958 10.4548 7.09006C10.4548 7.11054 10.4445 7.12729 10.4319 7.12729C10.4194 7.12729 10.4091 7.14484 10.4091 7.16628C10.4091 7.18775 10.3936 7.22205 10.3747 7.24253C10.3454 7.2744 10.3404 7.4253 10.3404 8.29175C10.3404 9.44062 10.3172 9.3155 10.5577 9.46152C10.6332 9.50734 10.7076 9.55829 10.7231 9.57475C10.7385 9.59118 10.7823 9.6196 10.8203 9.63784C10.8583 9.65611 10.8894 9.67949 10.8894 9.68981C10.8894 9.70014 10.91 9.70858 10.9351 9.70858C10.9603 9.70858 10.9809 9.71975 10.9809 9.7334C10.9809 9.74705 10.9939 9.75822 11.0097 9.75822C11.0256 9.75822 11.0663 9.78614 11.1002 9.82027C11.1341 9.8544 11.1778 9.88232 11.1972 9.88232C11.2166 9.88232 11.2325 9.8918 11.2325 9.90337C11.2325 9.91496 11.2762 9.94536 11.3297 9.97095C11.3832 9.99652 11.4321 10.0233 11.4383 10.0305C11.4446 10.0378 11.5295 10.0874 11.627 10.1408C11.7246 10.1942 11.8043 10.2472 11.8043 10.2587C11.8043 10.2701 11.8198 10.2794 11.8386 10.2794C11.8575 10.2794 11.8729 10.2888 11.8729 10.3002C11.8729 10.3116 11.9271 10.3507 11.9933 10.3871C12.1131 10.4528 12.2618 10.4757 12.2618 10.4284C12.2618 10.4147 12.2772 10.4035 12.2961 10.4035C12.315 10.4035 12.3304 10.3945 12.3304 10.3834C12.3304 10.3723 12.3512 10.339 12.3767 10.3093C12.4393 10.2364 12.466 9.99475 12.4669 9.49331L12.4676 9.09187L12.5305 9.12861C12.5651 9.14879 12.6243 9.18621 12.662 9.21175C12.6998 9.23729 12.7478 9.25901 12.7688 9.26C12.7897 9.261 12.8103 9.27021 12.8145 9.28043C12.8237 9.30289 12.9891 9.40843 13.0452 9.42764C13.0672 9.43518 13.0852 9.45122 13.0852 9.46328C13.0852 9.47532 13.1011 9.4852 13.1205 9.4852C13.1399 9.4852 13.1785 9.50828 13.2062 9.53648C13.234 9.56467 13.2928 9.60597 13.3368 9.62826C13.3808 9.65052 13.422 9.67505 13.4283 9.68269C13.4346 9.69036 13.479 9.71888 13.527 9.74606C13.5751 9.77321 13.6321 9.8122 13.6538 9.83268C13.7062 9.88207 13.8055 9.94621 13.9315 10.012C13.9881 10.0415 14.0396 10.0719 14.0459 10.0795C14.0522 10.0871 14.1216 10.1261 14.2003 10.1661C14.2789 10.2061 14.3432 10.248 14.3432 10.2592C14.3432 10.2703 14.3578 10.2794 14.3756 10.2794C14.3934 10.2794 14.4114 10.2889 14.4157 10.3006C14.4275 10.3334 14.6127 10.4532 14.6515 10.4532C14.6707 10.4532 14.6863 10.4643 14.6863 10.478C14.6863 10.4917 14.7069 10.5028 14.7321 10.5028C14.7572 10.5028 14.7778 10.5115 14.7778 10.5221C14.7778 10.5327 14.824 10.5634 14.8805 10.5903C14.937 10.6173 14.9833 10.6477 14.9835 10.6579C14.9836 10.6682 14.9944 10.6766 15.0075 10.6766C15.0206 10.6766 15.0438 10.6879 15.059 10.7017C15.1161 10.7538 15.261 10.8503 15.282 10.8503C15.294 10.8503 15.3039 10.8615 15.3039 10.8751C15.3039 10.8888 15.3201 10.8999 15.34 10.8999C15.3599 10.8999 15.4325 10.9418 15.5013 10.993C15.5701 11.0442 15.6645 11.1084 15.711 11.1357C16.11 11.3699 16.2874 11.4819 16.2874 11.4996C16.2874 11.5111 16.2979 11.5204 16.3107 11.5204C16.3236 11.5204 16.3748 11.5484 16.4247 11.5825C16.4745 11.6166 16.5289 11.6445 16.5457 11.6445C16.5624 11.6445 16.5982 11.6669 16.6253 11.6942C16.6522 11.7215 16.6842 11.7438 16.6963 11.7438C16.7292 11.7438 16.8589 11.8279 16.8591 11.8493C16.8592 11.8596 16.8803 11.8679 16.906 11.8679C16.9317 11.8679 16.9796 11.895 17.0125 11.9281C17.0454 11.9612 17.117 12.0132 17.1716 12.0437C17.2263 12.0742 17.271 12.1085 17.271 12.12C17.271 12.1315 17.2837 12.1409 17.2992 12.1409C17.3339 12.1409 17.5674 12.2664 17.6077 12.3067C17.6237 12.3228 17.6368 12.3451 17.6366 12.3564C17.6363 12.3826 17.5326 12.4513 17.3062 12.5753C17.2064 12.6299 17.114 12.6831 17.1007 12.6935C17.0134 12.7621 16.8996 12.8359 16.8811 12.8359C16.8691 12.8359 16.8592 12.8444 16.8592 12.8549C16.8592 12.8653 16.8165 12.896 16.7644 12.9231C16.6132 13.0017 16.5848 13.0202 16.5848 13.0403C16.5848 13.0508 16.5642 13.0593 16.539 13.0593C16.5139 13.0593 16.4933 13.0705 16.4933 13.0841C16.4933 13.0978 16.4787 13.1089 16.4608 13.1089C16.42 13.1089 16.2878 13.1894 16.2876 13.2144C16.2875 13.2247 16.2668 13.233 16.2417 13.233C16.2165 13.233 16.1959 13.2442 16.1959 13.2578C16.1959 13.2715 16.1805 13.2827 16.1616 13.2827C16.1427 13.2827 16.1273 13.2914 16.1273 13.3022C16.1273 13.3129 16.0707 13.3547 16.0016 13.3952C15.9324 13.4357 15.8758 13.4749 15.8758 13.4824C15.8757 13.4899 15.8397 13.5102 15.7956 13.5275C15.7516 13.5448 15.7156 13.5677 15.7156 13.5785C15.7156 13.5893 15.6278 13.6472 15.5204 13.7072C15.413 13.7672 15.2655 13.8498 15.1924 13.8908C15.1194 13.9317 15.0297 13.9902 14.9931 14.0208C14.9564 14.0514 14.9158 14.0849 14.9027 14.0953C14.8896 14.1057 14.7969 14.1588 14.6968 14.2134C14.5967 14.268 14.5113 14.3211 14.5071 14.3313C14.5029 14.3415 14.4798 14.3499 14.4557 14.3499C14.4316 14.3499 14.4118 14.3604 14.4118 14.3731C14.4118 14.3858 14.3931 14.4027 14.3701 14.4106C14.3472 14.4185 14.3084 14.4444 14.284 14.4681C14.2597 14.4919 14.1757 14.5448 14.0974 14.5857C14.0191 14.6267 13.955 14.6685 13.9547 14.6788C13.9545 14.689 13.9389 14.6974 13.9201 14.6974C13.9012 14.6974 13.8858 14.7062 13.8858 14.7169C13.8858 14.7276 13.8292 14.7695 13.76 14.81C13.6909 14.8505 13.6343 14.8919 13.6342 14.9022C13.6342 14.9124 13.6093 14.9208 13.5789 14.9208C13.5485 14.9208 13.5202 14.9303 13.516 14.9418C13.5118 14.9534 13.462 14.9909 13.4054 15.0252C13.3488 15.0595 13.2613 15.1126 13.211 15.1432C13.1607 15.1738 13.1033 15.2145 13.0834 15.2336C13.0635 15.2527 13.0352 15.2683 13.0205 15.2683C13.0058 15.2683 12.9935 15.2766 12.9933 15.2869C12.9931 15.2971 12.9288 15.339 12.8504 15.38C12.772 15.4209 12.7044 15.4628 12.7002 15.473C12.696 15.4833 12.6788 15.4917 12.662 15.4917C12.6453 15.4917 12.6281 15.5015 12.6239 15.5134C12.6197 15.5254 12.5828 15.5431 12.542 15.5527L12.4676 15.5701V14.7867V14.0032L12.5534 14.0435C12.6006 14.0657 12.6649 14.0961 12.6964 14.1111C12.7278 14.1262 12.8071 14.1749 12.8725 14.2194C12.938 14.2639 13.0004 14.3003 13.0112 14.3003C13.022 14.3003 13.0508 14.3198 13.0752 14.3437C13.1484 14.4155 13.2869 14.474 13.3833 14.474C13.4332 14.474 13.474 14.4631 13.474 14.4497C13.474 14.4363 13.4998 14.4183 13.5312 14.4098C13.5627 14.4012 13.5884 14.3842 13.5884 14.3721C13.5884 14.3599 13.603 14.3499 13.6208 14.3499C13.6386 14.3499 13.6566 14.3414 13.6608 14.3311C13.665 14.3207 13.7199 14.2832 13.7828 14.2477C14.0124 14.1182 14.1754 14.0183 14.3432 13.9044C14.4376 13.8404 14.5482 13.7735 14.5891 13.7557C14.63 13.7379 14.6634 13.7143 14.6634 13.7033C14.6634 13.6922 14.6822 13.6767 14.7052 13.6688C14.7281 13.6609 14.7667 13.6347 14.7909 13.6105C14.8152 13.5864 14.8916 13.5362 14.9608 13.4989C15.1234 13.4113 15.1503 13.3869 15.1967 13.2851C15.2582 13.1503 15.2373 12.9889 15.1506 12.9284C15.1355 12.9179 15.1098 12.8952 15.0934 12.8779C15.0206 12.801 14.896 12.7118 14.8614 12.7118C14.8406 12.7118 14.8235 12.7033 14.8235 12.6928C14.8235 12.6824 14.7816 12.6542 14.7304 12.6301C14.6792 12.606 14.6155 12.5643 14.5888 12.5374C14.5622 12.5104 14.5218 12.4884 14.499 12.4884C14.4762 12.4884 14.4576 12.4773 14.4576 12.4636C14.4576 12.45 14.4418 12.4388 14.4225 12.4388C14.3916 12.4388 14.2835 12.3763 14.2517 12.3401C14.2454 12.3329 14.2094 12.3103 14.1717 12.2898C14.1339 12.2694 14.0928 12.2438 14.0802 12.2331C14.0259 12.1866 13.7194 11.992 13.7006 11.992C13.6892 11.992 13.6799 11.9811 13.6799 11.9677C13.6799 11.9543 13.6542 11.9363 13.6227 11.9278C13.5913 11.9192 13.5655 11.9022 13.5655 11.8901C13.5655 11.8779 13.5449 11.8679 13.5198 11.8679C13.4946 11.8679 13.474 11.8576 13.474 11.8451C13.474 11.8325 13.3943 11.7795 13.2968 11.7272C13.1993 11.6749 13.0886 11.6012 13.0509 11.5633C13.0131 11.5255 12.9565 11.4874 12.9251 11.4788C12.8936 11.4702 12.8628 11.4564 12.8565 11.4481C12.8502 11.4399 12.7627 11.3885 12.6621 11.3341C12.4666 11.2282 12.4702 11.2306 12.3614 11.1361C12.3218 11.1018 12.273 11.0737 12.2528 11.0737C12.2326 11.0737 12.216 11.0625 12.216 11.0489C12.216 11.0352 12.2006 11.024 12.1817 11.024C12.1628 11.024 12.1474 11.0129 12.1474 10.9992C12.1474 10.9856 12.1292 10.9744 12.107 10.9744C12.0847 10.9744 12.0287 10.9465 11.9824 10.9124C11.9361 10.8782 11.8874 10.8503 11.8741 10.8503C11.8609 10.8503 11.8501 10.8391 11.8501 10.8255C11.8501 10.8118 11.8354 10.8007 11.8176 10.8007C11.7768 10.8007 11.6445 10.7201 11.6443 10.6952C11.6443 10.6849 11.6236 10.6766 11.5985 10.6766C11.5733 10.6766 11.5527 10.6654 11.5527 10.6517C11.5527 10.6381 11.5373 10.6269 11.5184 10.6269C11.4995 10.6269 11.4841 10.6185 11.484 10.6083C11.484 10.5981 11.4248 10.5564 11.3525 10.5158C11.2802 10.4751 11.2011 10.422 11.1767 10.3979C11.1523 10.3737 11.1233 10.3539 11.1123 10.3539C11.1012 10.3539 11.0585 10.326 11.0172 10.2918C10.976 10.2577 10.9368 10.2298 10.93 10.2298C10.9233 10.2298 10.858 10.1907 10.7849 10.1429C10.6768 10.0723 10.6289 10.0561 10.5288 10.0561C10.4527 10.0561 10.3933 10.0696 10.3731 10.0915C10.3226 10.1463 10.324 19.4486 10.3745 19.5034C10.4262 19.5594 10.5552 19.5736 10.6301 19.5314C10.8323 19.4174 10.9016 19.3741 10.9084 19.3574C10.9127 19.3471 10.9251 19.3388 10.9362 19.3388C10.9543 19.3388 11.3718 19.0703 11.4269 19.0233C11.4395 19.0125 11.4807 18.987 11.5184 18.9665C11.5561 18.946 11.5922 18.9235 11.5985 18.9163C11.6303 18.88 11.7384 18.8175 11.7692 18.8175C11.7885 18.8175 11.8044 18.8092 11.8045 18.7989C11.8046 18.7887 11.8278 18.7683 11.856 18.7537C11.9891 18.6845 12.1596 18.5799 12.1665 18.5631C12.1707 18.5529 12.1903 18.5445 12.2101 18.5445C12.2399 18.5445 12.3806 18.4465 12.4219 18.3969C12.4282 18.3894 12.4951 18.3501 12.5706 18.3097C12.646 18.2692 12.7129 18.2301 12.7192 18.2228C12.7416 18.1967 12.8334 18.1474 12.8595 18.1474C12.8854 18.1474 13.1311 17.9809 13.1538 17.9479C13.1601 17.9388 13.2064 17.9107 13.2567 17.8856C13.3071 17.8604 13.3534 17.8336 13.3597 17.826C13.366 17.8184 13.402 17.7955 13.4397 17.7751C13.4775 17.7547 13.5135 17.7312 13.5198 17.723C13.5261 17.7147 13.5724 17.6871 13.6227 17.6617C13.673 17.6362 13.7342 17.5955 13.7586 17.5712C13.7829 17.5468 13.8128 17.5269 13.825 17.5269C13.8372 17.5269 13.8809 17.499 13.9221 17.4648C13.9633 17.4307 14.0081 17.4028 14.0215 17.4028C14.0349 17.4028 14.0459 17.3916 14.0459 17.378C14.0459 17.3643 14.0664 17.3532 14.0916 17.3532C14.1168 17.3532 14.1374 17.3422 14.1374 17.3288C14.1374 17.3154 14.1631 17.2975 14.1945 17.2889C14.226 17.2803 14.2517 17.2643 14.2517 17.2533C14.2517 17.2422 14.3341 17.1909 14.4347 17.1391C14.5353 17.0874 14.6177 17.0362 14.6177 17.0254C14.6177 17.0145 14.6331 17.0057 14.652 17.0057C14.6709 17.0057 14.6863 16.9945 14.6863 16.9809C14.6863 16.9672 14.702 16.956 14.7211 16.956C14.7402 16.956 14.7966 16.9281 14.8464 16.894C14.8962 16.8599 14.9437 16.8319 14.9519 16.8319C14.9601 16.8319 14.9835 16.8122 15.0039 16.7882C15.0242 16.7641 15.1026 16.7114 15.1781 16.671C15.2536 16.6307 15.3187 16.589 15.3229 16.5783C15.3271 16.5677 15.3451 16.5589 15.363 16.5589C15.3808 16.5589 15.3954 16.5477 15.3954 16.5341C15.3954 16.5204 15.4153 16.5093 15.4398 16.5093C15.4642 16.5093 15.4906 16.4979 15.4985 16.4841C15.5064 16.4702 15.5225 16.4652 15.5342 16.4731C15.5459 16.481 15.5555 16.4783 15.5555 16.4672C15.5555 16.456 15.5838 16.4332 15.6184 16.4164C15.653 16.3996 15.7112 16.3578 15.7478 16.3235C15.7843 16.2892 15.828 16.2611 15.845 16.2611C15.8619 16.2611 15.8757 16.2499 15.8757 16.2363C15.8757 16.2226 15.8963 16.2114 15.9214 16.2114C15.9466 16.2114 15.9672 16.203 15.9672 16.1927C15.9672 16.1823 16.0006 16.1578 16.0415 16.1382C16.0824 16.1186 16.1262 16.0933 16.1387 16.082C16.1513 16.0708 16.1873 16.0385 16.2188 16.0102C16.2502 15.982 16.3455 15.9245 16.4304 15.8826C16.5153 15.8406 16.5848 15.7981 16.5848 15.7882C16.5848 15.7782 16.6084 15.7636 16.6373 15.7558C16.6885 15.7418 16.9738 15.5524 16.9965 15.5172C17.0028 15.5075 17.0568 15.4795 17.1166 15.455C17.1763 15.4305 17.2252 15.4008 17.2252 15.389C17.2252 15.3772 17.2406 15.3676 17.2595 15.3676C17.2784 15.3676 17.2938 15.3588 17.2938 15.3482C17.2938 15.3375 17.3607 15.2964 17.4425 15.2568C17.5243 15.2172 17.5912 15.1757 17.5912 15.1645C17.5912 15.1533 17.6022 15.1442 17.6156 15.1442C17.629 15.1442 17.6737 15.1163 17.7149 15.0821C17.7562 15.048 17.8018 15.0201 17.8163 15.0201C17.8309 15.0201 17.8428 15.0116 17.8428 15.0013C17.8428 14.991 17.8762 14.9667 17.9171 14.9474C17.958 14.9281 18.0223 14.8874 18.0601 14.857C18.1596 14.7767 18.2964 14.6974 18.3352 14.6974C18.3537 14.6974 18.3689 14.6856 18.3689 14.6711C18.3689 14.6567 18.3792 14.6517 18.3917 14.6602C18.4043 14.6686 18.4146 14.6664 18.4146 14.6552C18.4146 14.644 18.4841 14.5959 18.569 14.5484C18.6539 14.5009 18.731 14.4508 18.7402 14.437C18.7494 14.4232 18.7572 14.4221 18.7574 14.4344C18.7575 14.4467 18.7769 14.4328 18.8004 14.4034C18.8239 14.374 18.8548 14.3499 18.869 14.3499C18.8833 14.3499 18.8949 14.3388 18.8949 14.3251C18.8949 14.3115 18.9155 14.3003 18.9407 14.3003C18.9658 14.3003 18.9864 14.29 18.9864 14.2774C18.9864 14.2648 19.0225 14.2416 19.0667 14.2258C19.1108 14.2099 19.1597 14.184 19.1753 14.168C19.191 14.152 19.2722 14.1022 19.3558 14.0572C19.4394 14.0122 19.5283 13.9562 19.5532 13.9327C19.5782 13.9092 19.6693 13.8418 19.7557 13.783C19.8445 13.7224 19.9422 13.6309 19.9804 13.5724C20.0177 13.5154 20.0665 13.4542 20.0891 13.4364C20.1116 13.4186 20.1301 13.3926 20.1301 13.3788C20.1301 13.3649 20.143 13.338 20.1587 13.319C20.2266 13.2369 20.2444 13.2088 20.2444 13.1844C20.2444 13.1702 20.2531 13.1586 20.2636 13.1586C20.3223 13.1586 20.3359 13.0066 20.3359 12.3519C20.3359 11.6973 20.3223 11.5453 20.2636 11.5453C20.2531 11.5453 20.2444 11.5336 20.2444 11.5194C20.2444 11.5051 20.2187 11.4633 20.1873 11.4265C20.1558 11.3897 20.1301 11.348 20.1301 11.3338C20.1301 11.3196 20.1095 11.2919 20.0843 11.2722C20.0592 11.2526 20.0386 11.2239 20.0386 11.2087C20.0386 11.1607 19.8669 10.9883 19.7679 10.9368C19.7158 10.9097 19.673 10.8791 19.6729 10.8689C19.6727 10.8587 19.6572 10.8503 19.6383 10.8503C19.6194 10.8503 19.604 10.8391 19.604 10.8255C19.604 10.8118 19.5878 10.8007 19.5681 10.8007C19.5483 10.8007 19.5178 10.7867 19.5002 10.7696C19.4245 10.696 19.3987 10.6766 19.3762 10.6766C19.3631 10.6766 19.3524 10.6654 19.3524 10.6517C19.3524 10.6381 19.3419 10.6269 19.3291 10.6269C19.3162 10.6269 19.265 10.599 19.2152 10.5649C19.1653 10.5307 19.1089 10.5028 19.0898 10.5028C19.0707 10.5028 19.055 10.4917 19.055 10.478C19.055 10.4643 19.0396 10.4532 19.0207 10.4532C19.0019 10.4532 18.9864 10.442 18.9864 10.4284C18.9864 10.4147 18.9755 10.4035 18.962 10.4035C18.9486 10.4035 18.9039 10.3756 18.8627 10.3415C18.8214 10.3074 18.7758 10.2794 18.7613 10.2794C18.7467 10.2794 18.7348 10.2683 18.7348 10.2546C18.7348 10.241 18.7214 10.2298 18.7049 10.2298C18.6884 10.2298 18.6151 10.1907 18.542 10.1429C18.4689 10.0952 18.3949 10.0561 18.3775 10.0561C18.3602 10.0561 18.346 10.0449 18.346 10.0312C18.346 10.0176 18.3345 10.0064 18.3205 10.0064C18.3064 10.0064 18.2458 9.96733 18.1859 9.91955C18.1259 9.87177 18.0653 9.83268 18.0513 9.83268C18.0372 9.83268 18.0258 9.82151 18.0258 9.80786C18.0258 9.79421 18.0093 9.78304 17.9893 9.78304C17.9692 9.78304 17.9243 9.76102 17.8895 9.73414C17.8547 9.70724 17.8196 9.69235 17.8116 9.70103C17.8036 9.70974 17.797 9.70381 17.797 9.6879C17.797 9.67197 17.7816 9.65894 17.7627 9.65894C17.7439 9.65894 17.7284 9.65035 17.7284 9.63988C17.7284 9.62938 17.67 9.59346 17.5987 9.56005C17.5274 9.52665 17.447 9.47658 17.4201 9.44881C17.3648 9.39172 17.2987 9.34283 17.2481 9.32153C17.1939 9.2987 17.032 9.20495 17.0194 9.18907C16.9845 9.14516 16.8349 9.03844 16.8082 9.03844C16.791 9.03844 16.7671 9.02843 16.7552 9.01622C16.7432 9.00401 16.6357 8.94042 16.5161 8.87492C16.3966 8.80942 16.2732 8.73007 16.2419 8.69857C16.2106 8.66708 16.172 8.64131 16.1561 8.64131C16.1403 8.64131 16.1273 8.63293 16.1273 8.6227C16.1273 8.61247 16.0604 8.57095 15.9786 8.53047C15.8968 8.48999 15.83 8.44812 15.83 8.43739C15.83 8.4267 15.8145 8.41793 15.7956 8.41793C15.7768 8.41793 15.7613 8.40676 15.7613 8.39311C15.7613 8.37946 15.7457 8.36829 15.7266 8.36829C15.6877 8.36829 15.5025 8.24849 15.4907 8.21568C15.4865 8.20406 15.4633 8.19455 15.4392 8.19455C15.4151 8.19455 15.3954 8.18589 15.3954 8.17529C15.3954 8.16469 15.3491 8.13399 15.2926 8.10704C15.2362 8.08008 15.1899 8.04965 15.1897 8.03943C15.1896 8.0292 15.1788 8.02081 15.1657 8.02081C15.1526 8.02081 15.1212 7.99996 15.096 7.97447C15.0708 7.94896 15.012 7.90709 14.9655 7.8814C14.9189 7.85568 14.8773 7.82627 14.8731 7.81605C14.8689 7.80582 14.8483 7.79718 14.8274 7.79689C14.8064 7.79659 14.7635 7.7745 14.7321 7.74779C14.7006 7.72109 14.6664 7.699 14.6561 7.6987C14.6458 7.6984 14.6219 7.6814 14.603 7.66092C14.5841 7.64045 14.5445 7.62369 14.515 7.62369C14.4855 7.62369 14.458 7.6153 14.4538 7.60508C14.4314 7.55057 14.1374 7.35067 14.0795 7.35067C14.061 7.35067 14.0459 7.34072 14.0459 7.32853C14.0459 7.31637 14.0201 7.29939 13.9887 7.29083C13.9572 7.28227 13.9315 7.2643 13.9315 7.25092C13.9315 7.23752 13.9109 7.22657 13.8858 7.22657C13.8606 7.22657 13.84 7.21803 13.84 7.20761C13.84 7.19718 13.8014 7.16921 13.7542 7.14543C13.6467 7.0913 13.5873 7.05102 13.543 7.00237C13.5239 6.98145 13.439 6.92779 13.3543 6.88314C13.2696 6.83848 13.1871 6.78753 13.1709 6.76993C13.1193 6.71401 12.9502 6.60607 12.9141 6.60607C12.895 6.60607 12.8793 6.5949 12.8793 6.58125C12.8793 6.5676 12.8588 6.55643 12.8336 6.55643C12.8084 6.55643 12.7878 6.54757 12.7878 6.53672C12.7878 6.51458 12.4449 6.33305 12.403 6.33305C12.3882 6.33305 12.3761 6.32188 12.3761 6.30823C12.3761 6.27259 11.3556 6.28043 11.2668 6.31674ZM18.4718 15.127C18.4466 15.1433 18.3784 15.1929 18.32 15.2372C18.2617 15.2816 18.2034 15.3179 18.1904 15.3179C18.1774 15.3179 18.1634 15.3263 18.1592 15.3365C18.149 15.3613 17.9069 15.4917 17.871 15.4917C17.8555 15.4917 17.8428 15.5028 17.8428 15.5165C17.8428 15.5301 17.8222 15.5413 17.797 15.5413C17.7719 15.5413 17.7513 15.5517 17.7513 15.5645C17.7513 15.5772 17.7281 15.5955 17.6998 15.6052C17.6715 15.6149 17.6317 15.6436 17.6114 15.6689C17.591 15.6943 17.5627 15.715 17.5485 15.715C17.5342 15.715 17.5226 15.7262 17.5226 15.7399C17.5226 15.7535 17.5028 15.7647 17.4787 15.7647C17.4546 15.7647 17.4315 15.773 17.4272 15.7833C17.4231 15.7935 17.3785 15.8241 17.3281 15.8513C17.2778 15.8785 17.2315 15.9065 17.2252 15.9135C17.1874 15.9558 17.0425 16.0593 16.9793 16.0891C16.9384 16.1085 16.905 16.1334 16.905 16.1445C16.905 16.1556 16.8968 16.1592 16.8867 16.1525C16.861 16.1352 16.8316 16.1611 16.7608 16.2634C16.6936 16.3606 16.6774 16.5114 16.7277 16.5722C16.8196 16.6835 16.83 16.6929 16.9907 16.8129C17.0561 16.8617 17.1408 16.9166 17.1788 16.9349C17.2169 16.9532 17.2481 16.9766 17.2481 16.9869C17.2481 16.9972 17.2631 17.0057 17.2814 17.0057C17.2997 17.0057 17.3526 17.0336 17.3989 17.0677C17.4453 17.1019 17.4952 17.1298 17.51 17.1298C17.5248 17.1298 17.5599 17.1531 17.5881 17.1816L17.6393 17.2334L17.5752 17.2933C17.54 17.3262 17.4931 17.3531 17.4711 17.3531C17.4491 17.3531 17.4311 17.3626 17.4311 17.3742C17.4311 17.3858 17.3873 17.4162 17.3339 17.4418C17.2804 17.4674 17.2315 17.4942 17.2252 17.5014C17.2189 17.5087 17.1829 17.5313 17.1452 17.5518C17.1074 17.5722 17.0509 17.6141 17.0196 17.6448C16.9883 17.6755 16.9497 17.7006 16.9338 17.7006C16.918 17.7006 16.905 17.7118 16.905 17.7255C16.905 17.7391 16.8844 17.7503 16.8592 17.7503C16.8341 17.7503 16.8134 17.7586 16.8133 17.7689C16.8132 17.7791 16.7668 17.8096 16.7104 17.8365C16.6539 17.8635 16.6076 17.8942 16.6076 17.9048C16.6076 17.9154 16.5922 17.924 16.5733 17.924C16.5545 17.924 16.539 17.9352 16.539 17.9488C16.539 17.9625 16.521 17.974 16.499 17.9745C16.477 17.9749 16.4178 18.0079 16.3675 18.0476C16.3172 18.0874 16.24 18.1394 16.1959 18.1631C16.1519 18.1868 16.0616 18.2432 15.9954 18.2885C15.929 18.3338 15.8621 18.3716 15.8467 18.3726C15.8312 18.3736 15.7876 18.3958 15.7499 18.422C15.7122 18.4481 15.6658 18.4775 15.647 18.4871C15.6281 18.4968 15.5944 18.5232 15.572 18.5458C15.5496 18.5683 15.4724 18.6188 15.4004 18.6579C15.3285 18.6971 15.2661 18.7378 15.262 18.7485C15.2577 18.7592 15.2397 18.7679 15.2219 18.7679C15.2041 18.7679 15.1895 18.7767 15.1895 18.7874C15.1895 18.7981 15.1329 18.84 15.0638 18.8805C14.9946 18.9209 14.938 18.9624 14.938 18.9727C14.938 18.9829 14.9223 18.9913 14.9031 18.9913C14.884 18.9913 14.8276 19.0192 14.7778 19.0533C14.728 19.0875 14.6716 19.1154 14.6525 19.1154C14.6333 19.1154 14.6176 19.1237 14.6174 19.134C14.6173 19.1442 14.5778 19.1731 14.5296 19.1981C14.4815 19.2231 14.4069 19.2761 14.364 19.3159C14.3211 19.3557 14.2689 19.3883 14.2479 19.3884C14.2269 19.3884 14.2064 19.3968 14.2022 19.407C14.198 19.4173 14.1534 19.4479 14.103 19.475C14.0527 19.5022 14.0064 19.5301 14.0001 19.5371C13.9938 19.5441 13.9424 19.5744 13.8858 19.6046C13.7555 19.674 13.6592 19.7371 13.6054 19.7885C13.5822 19.8106 13.52 19.8494 13.4672 19.8747C13.4143 19.8999 13.3545 19.9405 13.3341 19.9648C13.3138 19.989 13.285 20.0089 13.2703 20.0089C13.2555 20.0089 13.2207 20.032 13.1929 20.0603C13.1651 20.0885 13.1141 20.1178 13.0795 20.1254C13.0449 20.133 13.0166 20.149 13.0166 20.1609C13.0166 20.1729 13.0011 20.1826 12.9823 20.1826C12.9634 20.1826 12.948 20.1913 12.948 20.2019C12.948 20.2125 12.9017 20.2432 12.8452 20.2702C12.7888 20.2971 12.7424 20.3275 12.7423 20.3378C12.7422 20.348 12.7224 20.3564 12.6983 20.3564C12.6741 20.3564 12.651 20.3648 12.6468 20.375C12.6426 20.3853 12.6006 20.413 12.5534 20.4367L12.4676 20.4797V19.934C12.4676 19.5868 12.4593 19.3884 12.4448 19.3884C12.4322 19.3884 12.4219 19.3656 12.4219 19.3376C12.4219 19.2848 12.3274 19.165 12.2857 19.165C12.2725 19.165 12.2618 19.1539 12.2618 19.1402C12.2618 19.1266 12.2257 19.1154 12.1817 19.1154C12.1377 19.1154 12.1017 19.1266 12.1017 19.1402C12.1017 19.1539 12.0811 19.165 12.0559 19.165C12.0308 19.165 12.0102 19.1762 12.0102 19.1898C12.0102 19.2035 11.9979 19.2147 11.9828 19.2147C11.9587 19.2147 11.7888 19.3284 11.7586 19.3648C11.7523 19.3724 11.706 19.3992 11.6556 19.4244C11.6053 19.4496 11.559 19.4772 11.5527 19.4858C11.5464 19.4943 11.463 19.5434 11.3674 19.5947C11.2718 19.6461 11.1728 19.7091 11.1474 19.7347C11.122 19.7604 11.0459 19.8116 10.9782 19.8485C10.9105 19.8854 10.7915 19.9645 10.7137 20.0243C10.636 20.0841 10.5562 20.133 10.5365 20.133C10.5167 20.133 10.5006 20.1442 10.5006 20.1578C10.5006 20.1715 10.4869 20.1826 10.4702 20.1826C10.4535 20.1826 10.4175 20.2085 10.3902 20.2401C10.3408 20.2971 10.3404 20.305 10.3404 21.2954V22.2933L10.3976 22.3916C10.4291 22.4457 10.4548 22.5013 10.4548 22.5152C10.4548 22.5292 10.4651 22.5406 10.4777 22.5406C10.4903 22.5406 10.5006 22.5573 10.5006 22.5778C10.5006 22.5983 10.5102 22.615 10.5219 22.615C10.5336 22.615 10.5499 22.6379 10.5581 22.6659C10.5781 22.7343 10.8607 23.0403 10.9466 23.0867C10.9843 23.1071 11.0203 23.1294 11.0266 23.1362C11.0329 23.143 11.0975 23.1793 11.1701 23.2169L11.3021 23.2852H11.8286H12.355L12.5429 23.193C12.6462 23.1423 12.7358 23.0948 12.7421 23.0875C12.7484 23.0801 12.8333 23.0314 12.9308 22.9791C13.0283 22.9269 13.1081 22.8738 13.1081 22.8613C13.1081 22.8487 13.1189 22.8384 13.132 22.8384C13.1452 22.8384 13.2123 22.7993 13.2812 22.7515C13.35 22.7037 13.4171 22.6647 13.4304 22.6647C13.4436 22.6647 13.468 22.6507 13.4846 22.6336C13.5011 22.6166 13.5433 22.5803 13.5782 22.553C13.6131 22.5257 13.6547 22.4894 13.6706 22.4723C13.6865 22.4552 13.71 22.4413 13.7229 22.4413C13.7357 22.4413 13.8008 22.4071 13.8675 22.3654C13.9341 22.3238 14.0067 22.2833 14.0287 22.2757C14.0507 22.268 14.0687 22.2519 14.0687 22.2398C14.0687 22.2278 14.0945 22.2179 14.1259 22.2179C14.1574 22.2179 14.1831 22.2093 14.1831 22.1987C14.1831 22.1882 14.2191 22.1585 14.2632 22.1328C14.3072 22.107 14.3432 22.0766 14.3432 22.0651C14.3432 22.0536 14.3587 22.0442 14.3775 22.0442C14.3964 22.0442 14.4118 22.033 14.4118 22.0193C14.4118 22.0057 14.428 21.9945 14.4478 21.9945C14.4676 21.9945 14.5267 21.9673 14.5793 21.934C14.6319 21.9008 14.7504 21.8298 14.8428 21.7763C14.9352 21.7228 15.0305 21.6606 15.0546 21.6382C15.0788 21.6158 15.1087 21.5974 15.1211 21.5974C15.1336 21.5974 15.1438 21.5873 15.1438 21.575C15.1438 21.5627 15.19 21.532 15.2466 21.5068C15.3032 21.4815 15.3495 21.4525 15.3495 21.4423C15.3496 21.432 15.3601 21.4237 15.373 21.4237C15.3937 21.4237 15.5715 21.3078 15.6012 21.275C15.6075 21.268 15.6693 21.2304 15.7385 21.1913C16.1081 20.9825 16.2091 20.922 16.2427 20.8891C16.263 20.8691 16.2916 20.8528 16.3064 20.8528C16.3211 20.8528 16.3332 20.844 16.3332 20.8333C16.3332 20.8226 16.3948 20.7807 16.47 20.7403C16.5453 20.6998 16.607 20.6583 16.6073 20.648C16.6075 20.6378 16.6282 20.6294 16.6534 20.6294C16.6785 20.6294 16.6991 20.6182 16.6991 20.6046C16.6991 20.5909 16.7173 20.5798 16.7396 20.5798C16.775 20.5798 16.9424 20.4737 16.9736 20.4315C16.9984 20.398 17.2011 20.2819 17.235 20.2819C17.2548 20.2819 17.271 20.2732 17.271 20.2625C17.271 20.2517 17.3044 20.2219 17.3453 20.1961C17.3862 20.1703 17.4248 20.1413 17.4311 20.1317C17.4374 20.122 17.5097 20.0762 17.5919 20.0299C17.6741 19.9835 17.7734 19.9207 17.8127 19.8904C17.852 19.86 17.9006 19.8352 17.9206 19.8352C17.9407 19.8352 17.9571 19.824 17.9571 19.8103C17.9571 19.7967 17.9726 19.7855 17.9914 19.7855C18.0102 19.7855 18.0746 19.7475 18.1344 19.701C18.2432 19.6165 18.298 19.5823 18.6726 19.3655C18.783 19.3016 18.8947 19.2295 18.9209 19.2052C18.947 19.1809 19.0419 19.12 19.1318 19.0699C19.2217 19.0199 19.3004 18.9724 19.3067 18.9646C19.3129 18.9567 19.3515 18.9292 19.3924 18.9034C19.4333 18.8776 19.4668 18.8477 19.4668 18.837C19.4668 18.8263 19.4873 18.8175 19.5125 18.8175C19.5377 18.8175 19.5583 18.809 19.5583 18.7986C19.5583 18.7882 19.5778 18.7686 19.6018 18.7552C19.6257 18.7417 19.6834 18.7093 19.73 18.6831C19.8258 18.6294 20.0843 18.3678 20.0843 18.3246C20.0843 18.3091 20.0946 18.2963 20.1072 18.2963C20.1198 18.2963 20.1301 18.2822 20.1301 18.265C20.1301 18.2478 20.1532 18.206 20.1815 18.172C20.2099 18.138 20.2476 18.0795 20.2655 18.0419C20.2833 18.0044 20.3065 17.9737 20.3169 17.9737C20.3274 17.9737 20.3359 17.6463 20.3359 17.2462C20.3359 16.5529 20.3338 16.5161 20.2902 16.4653C20.265 16.4361 20.2444 16.3999 20.2444 16.3851C20.2444 16.3702 20.2187 16.3302 20.1873 16.296C20.1558 16.2619 20.1301 16.2242 20.1301 16.2122C20.1301 16.1723 19.8227 15.8473 19.7184 15.777C19.6618 15.7388 19.6103 15.7008 19.604 15.6925C19.5801 15.6609 19.4027 15.5487 19.2266 15.4538C19.126 15.3995 19.0402 15.3468 19.036 15.3365C19.0318 15.3263 19.0086 15.3179 18.9845 15.3179C18.9604 15.3179 18.9407 15.3067 18.9407 15.2931C18.9407 15.2794 18.9277 15.2683 18.9119 15.2683C18.896 15.2683 18.8553 15.2404 18.8214 15.2062C18.7875 15.1721 18.7438 15.1442 18.7244 15.1442C18.705 15.1442 18.6891 15.133 18.6891 15.1194C18.6891 15.0851 18.5278 15.0908 18.4718 15.127Z" fill="#8109EA"/>
</svg>
