<svg width="29" height="29" viewBox="0 0 29 29" fill="none" xmlns="http://www.w3.org/2000/svg">
<rect x="0.234375" y="0.285156" width="28" height="28" rx="7" fill="#CCFF00" fill-opacity="0.1"/>
<path d="M11.8242 16.6797C11.554 16.6797 11.3258 16.482 11.2804 16.2087L9.74239 6.94512C9.71751 6.79574 9.75097 6.64635 9.83674 6.52333C9.92252 6.40031 10.0495 6.31858 10.1944 6.2931C10.4947 6.24125 10.7803 6.44864 10.8318 6.75619L12.3697 16.0198C12.3946 16.1692 12.3612 16.3186 12.2754 16.4416C12.1896 16.5646 12.0627 16.6463 11.9177 16.6718C11.8877 16.6771 11.8559 16.6797 11.8242 16.6797Z" fill="#CCFF00"/>
<path d="M11.8242 16.6797C11.554 16.6797 11.3258 16.482 11.2804 16.2087L9.74239 6.94512C9.71751 6.79574 9.75097 6.64635 9.83674 6.52333C9.92252 6.40031 10.0495 6.31858 10.1944 6.2931C10.4947 6.24125 10.7803 6.44864 10.8318 6.75619L12.3697 16.0198C12.3946 16.1692 12.3612 16.3186 12.2754 16.4416C12.1896 16.5646 12.0627 16.6463 11.9177 16.6718C11.8877 16.6771 11.8559 16.6797 11.8242 16.6797Z" fill="#CCFF00"/>
<path d="M14.4029 12.4062C13.5237 12.4062 12.7062 12.676 12.0226 13.1391L12.2087 14.2604C12.7963 13.7357 13.564 13.4168 14.4029 13.4168C16.248 13.4168 17.7491 14.9546 17.7491 16.8447C17.7491 18.7349 16.248 20.2726 14.4029 20.2726C12.5578 20.2726 11.0567 18.7349 11.0567 16.8447C11.0567 16.5925 11.0842 16.3473 11.1348 16.111L10.838 14.3263C10.3542 15.0424 10.0703 15.9106 10.0703 16.8456C10.0703 19.2928 12.014 21.284 14.4029 21.284C16.7918 21.284 18.7355 19.2928 18.7355 16.8456C18.7355 14.3983 16.7927 12.4062 14.4029 12.4062Z" fill="#CCFF00"/>
<path d="M14.1682 19.4357C14.4942 19.4357 14.7584 19.165 14.7584 18.8311C14.7584 18.4972 14.4942 18.2266 14.1682 18.2266C13.8423 18.2266 13.5781 18.4972 13.5781 18.8311C13.5781 19.165 13.8423 19.4357 14.1682 19.4357Z" fill="#1CD8D2"/>
<path d="M16.012 18.7326C16.3379 18.7326 16.6022 18.4619 16.6022 18.128C16.6022 17.7941 16.3379 17.5234 16.012 17.5234C15.6861 17.5234 15.4219 17.7941 15.4219 18.128C15.4219 18.4619 15.6861 18.7326 16.012 18.7326Z" fill="#1CD8D2"/>
<path d="M14.5589 17.4357C14.8848 17.4357 15.149 17.165 15.149 16.8311C15.149 16.4973 14.8848 16.2266 14.5589 16.2266C14.2329 16.2266 13.9688 16.4973 13.9688 16.8311C13.9688 17.165 14.2329 17.4357 14.5589 17.4357Z" fill="#1CD8D2"/>
<path d="M12.7308 18.0529C13.0567 18.0529 13.3209 17.7822 13.3209 17.4484C13.3209 17.1144 13.0567 16.8438 12.7308 16.8438C12.4048 16.8438 12.1406 17.1144 12.1406 17.4484C12.1406 17.7822 12.4048 18.0529 12.7308 18.0529Z" fill="#1CD8D2"/>
<path d="M16.387 16.8185C16.7129 16.8185 16.9772 16.5478 16.9772 16.2139C16.9772 15.88 16.7129 15.6094 16.387 15.6094C16.0611 15.6094 15.7969 15.88 15.7969 16.2139C15.7969 16.5478 16.0611 16.8185 16.387 16.8185Z" fill="#1CD8D2"/>
<path d="M14.9496 15.4357C15.2755 15.4357 15.5397 15.165 15.5397 14.8312C15.5397 14.4973 15.2755 14.2266 14.9496 14.2266C14.6236 14.2266 14.3594 14.4973 14.3594 14.8312C14.3594 15.165 14.6236 15.4357 14.9496 15.4357Z" fill="#1CD8D2"/>
<path d="M13.1057 16.1388C13.4317 16.1388 13.6959 15.8681 13.6959 15.5342C13.6959 15.2003 13.4317 14.9297 13.1057 14.9297C12.7799 14.9297 12.5156 15.2003 12.5156 15.5342C12.5156 15.8681 12.7799 16.1388 13.1057 16.1388Z" fill="#1CD8D2"/>
</svg>
