<svg width="29" height="29" viewBox="0 0 29 29" fill="none" xmlns="http://www.w3.org/2000/svg">
<rect x="0.335938" y="0.285156" width="28" height="28" rx="7.25926" fill="#F3BA2F" fill-opacity="0.12"/>
<path d="M11.2074 13.1401L14.5311 9.79344L17.8565 13.1418L19.7905 11.1945L14.5311 5.89844L9.27344 11.1927L11.2074 13.1401Z" fill="#F3BA2F"/>
<path d="M9.84017 14.5216L7.90625 12.5742L5.97224 14.5216L7.90615 16.469L9.84017 14.5216Z" fill="#F3BA2F"/>
<path d="M11.2024 15.8942L14.5261 19.2408L17.8514 15.8926L19.7864 17.8389L19.7855 17.8399L14.5261 23.1358L9.26833 17.8417L9.26562 17.839L11.2024 15.8942Z" fill="#F3BA2F"/>
<path d="M21.1519 16.4709L23.0859 14.5234L21.152 12.5761L19.218 14.5235L21.1519 16.4709Z" fill="#F3BA2F"/>
<path d="M16.4954 14.5171H16.4962L14.5337 12.541L13.0834 14.0014H13.0833L12.9168 14.1692L12.573 14.5153L12.5703 14.5181L12.573 14.5209L14.5337 16.4952L16.4962 14.5191L16.4971 14.5181L16.4954 14.5171Z" fill="#F3BA2F"/>
</svg>
