<svg width="29" height="29" viewBox="0 0 29 29" fill="none" xmlns="http://www.w3.org/2000/svg">
<rect x="0.335938" y="0.285156" width="28" height="28" rx="7.25926" fill="#071CFE" fill-opacity="0.15"/>
<path d="M13.7103 6.65682C14.0617 6.45814 14.5963 6.45814 14.9477 6.65682L18.5331 8.68416C18.7447 8.80382 18.8609 8.98213 18.8818 9.16619H18.8852V19.3567C18.8805 19.5574 18.7632 19.7569 18.5331 19.887L14.9477 21.9143C14.5963 22.113 14.0617 22.113 13.7103 21.9143L10.1249 19.887C9.89574 19.7575 9.78577 19.5566 9.78033 19.3567C9.77979 19.337 9.77972 19.3206 9.78024 19.307L9.78022 9.23165C9.77986 9.22061 9.77982 9.20959 9.78012 9.19861L9.78033 9.16619L9.78193 9.16618C9.79786 8.9801 9.9088 8.80635 10.1249 8.68416L13.7103 6.65682ZM18.3208 14.8514L14.9477 16.7587C14.5963 16.9574 14.0617 16.9574 13.7103 16.7587L10.3446 14.8557V19.3365L13.7103 21.2295C13.9003 21.3383 14.0976 21.4443 14.2905 21.4578L14.329 21.4591C14.53 21.4598 14.7251 21.3506 14.923 21.2472L18.3208 19.3202V14.8514ZM9.19716 19.1351C9.19716 19.5255 9.23955 19.7821 9.32371 19.963C9.39346 20.1128 9.49812 20.2273 9.68923 20.3667L9.70014 20.3746C9.74208 20.4049 9.78828 20.4366 9.84452 20.4738L9.91084 20.5173L10.1145 20.6489L9.8224 21.1659L9.59446 21.0184L9.55615 20.9933C9.49024 20.9497 9.43562 20.9123 9.38467 20.8755C8.84001 20.4824 8.63688 20.0539 8.63287 19.1622L8.63281 19.1351H9.19716ZM14.0467 12.1201C14.0206 12.1297 13.9962 12.1407 13.9739 12.1534L10.3884 14.1807C10.3847 14.1828 10.3811 14.1849 10.3777 14.187L10.3746 14.1889L10.3803 14.1924L10.3884 14.1971L13.9739 16.2244C13.9962 16.2371 14.0206 16.2482 14.0467 16.2578V12.1201ZM14.6113 12.1201V16.2578C14.6374 16.2482 14.6618 16.2371 14.6841 16.2244L18.2695 14.1971C18.2733 14.195 18.2769 14.1929 18.2803 14.1908L18.2833 14.1889L18.2777 14.1855L18.2695 14.1807L14.6841 12.1534C14.6618 12.1407 14.6374 12.1297 14.6113 12.1201ZM18.3208 9.88907L15.1044 11.7077L18.3208 13.5264V9.88907ZM10.3446 9.89333V13.5221L13.5535 11.7077L10.3446 9.89333ZM14.6841 7.19106C14.4977 7.08563 14.1603 7.08563 13.9739 7.19106L10.3884 9.21841C10.3847 9.22054 10.3811 9.22264 10.3777 9.22472L10.3746 9.2266L10.3803 9.23005L10.3884 9.23481L13.9739 11.2622C14.1603 11.3676 14.4977 11.3676 14.6841 11.2622L18.2695 9.23481C18.2733 9.23268 18.2769 9.23058 18.2803 9.22849L18.2833 9.2266L18.2777 9.22315L18.2695 9.21841L14.6841 7.19106ZM18.8506 7.41338L19.0786 7.56076L19.1169 7.58594C19.1828 7.62949 19.2374 7.66691 19.2884 7.70368C19.833 8.09678 20.0362 8.52538 20.0401 9.41695L20.0402 9.44411H19.4759C19.4759 9.05367 19.4335 8.79705 19.3493 8.61625C19.2796 8.46641 19.1749 8.3519 18.9838 8.21255L18.9729 8.20464C18.931 8.17437 18.8848 8.14266 18.8285 8.10539L18.7622 8.06191L18.5585 7.93034L18.8506 7.41338Z" fill="#071CFE"/>
</svg>
