<svg width="29" height="29" viewBox="0 0 29 29" fill="none" xmlns="http://www.w3.org/2000/svg">
<rect x="0.335938" y="0.285156" width="28" height="28" rx="7.25926" fill="#29BCC8" fill-opacity="0.12"/>
<path d="M11.0508 10.1944C11.0598 10.1891 11.0694 10.1847 11.0794 10.1815C11.1861 10.1327 11.2929 10.0866 11.3996 10.0456V7.9701C11.3999 7.7888 11.3271 7.61481 11.1972 7.48637C11.0674 7.35794 10.8911 7.28556 10.7072 7.28516H7.83594V13.242C8.53712 11.9045 9.66743 10.833 11.0508 10.1944Z" fill="#2AC8CE"/>
<path d="M13.9846 13.8232H14.6249C14.8458 13.8233 15.0645 13.7805 15.2685 13.6972C15.4726 13.614 15.658 13.4919 15.8142 13.338C15.9704 13.1841 16.0942 13.0014 16.1787 12.8003C16.2632 12.5991 16.3066 12.3836 16.3065 12.1659V10.3907C15.9602 10.3317 14.3776 10.2988 14.0106 10.2988C12.4459 10.2979 10.9391 10.8821 9.79452 11.9334C8.64991 12.9848 7.95274 14.425 7.84377 15.9633C7.83341 16.1043 7.82812 16.2454 7.82812 16.3891C7.82812 16.5328 7.8333 16.6739 7.84377 16.815V20.6011C7.84372 20.6907 7.86161 20.7794 7.89639 20.8623C7.93117 20.9451 7.98218 21.0203 8.04648 21.0837C8.11079 21.1471 8.18714 21.1973 8.27116 21.2316C8.35519 21.2659 8.44525 21.2835 8.53619 21.2835H11.4074V16.3556C11.4088 15.6832 11.6811 15.0388 12.1643 14.564C12.6475 14.0893 13.3022 13.8229 13.9846 13.8236V13.8232Z" fill="#2AC8CE"/>
<path d="M17.6144 18.3759C17.6054 18.3812 17.5958 18.3855 17.5858 18.3887C17.4791 18.4374 17.3723 18.4837 17.2656 18.5247V20.6002C17.2654 20.7815 17.3381 20.9554 17.468 21.0839C17.5978 21.2123 17.7741 21.2847 17.9581 21.2851H20.8272V15.3281C20.1262 16.6651 18.9968 17.7365 17.6144 18.3759Z" fill="#2AC8CE"/>
<path d="M20.83 11.7541V7.96755C20.8301 7.87792 20.8122 7.78917 20.7774 7.70636C20.7426 7.62355 20.6916 7.54831 20.6273 7.48493C20.563 7.42156 20.4867 7.3713 20.4026 7.33702C20.3186 7.30274 20.2285 7.28512 20.1376 7.28516H17.2664V12.2135C17.265 12.8855 16.9931 13.5294 16.5104 14.0041C16.0277 14.4787 15.3737 14.7452 14.6918 14.745H14.0488C13.8279 14.7449 13.6092 14.7878 13.4051 14.871C13.201 14.9543 13.0155 15.0764 12.8594 15.2304C12.7032 15.3843 12.5793 15.5671 12.4949 15.7682C12.4104 15.9694 12.367 16.185 12.3672 16.4027V18.1779C12.7135 18.2369 14.2961 18.2698 14.6631 18.2698C14.7046 18.2698 14.7438 18.2698 14.7855 18.2672C15.6462 18.2528 16.4942 18.0596 17.2741 17.7003L17.2897 17.6926C18.2873 17.233 19.142 16.5186 19.7649 15.6236C20.3878 14.7286 20.7563 13.6856 20.8321 12.6028C20.8425 12.4617 20.8477 12.3206 20.8477 12.1769C20.8457 12.0363 20.8404 11.8952 20.83 11.7541Z" fill="#2AC8CE"/>
</svg>
