<svg width="29" height="29" viewBox="0 0 29 29" fill="none" xmlns="http://www.w3.org/2000/svg">
<rect x="0.335938" y="0.285156" width="28" height="28" rx="7" fill="#0275CF" fill-opacity="0.15"/>
<path d="M18.5546 8.00071L15.6334 12.3407C15.4314 12.6363 15.8198 12.994 16.0995 12.7452L18.9741 10.2407C19.0518 10.1785 19.1606 10.2252 19.1606 10.334V18.1585C19.1606 18.2674 19.0207 18.314 18.9586 18.2363L10.2571 7.81405C9.97745 7.47182 9.57345 7.28516 9.12284 7.28516H8.81208C8.00408 7.28516 7.33594 7.95405 7.33594 8.77849V19.7918C7.33594 20.6163 8.00408 21.2852 8.82761 21.2852C9.34038 21.2852 9.82206 21.0207 10.1018 20.5696L13.023 16.2296C13.2249 15.934 12.8365 15.5763 12.5568 15.8252L9.68222 18.314C9.60453 18.3763 9.49576 18.3296 9.49576 18.2207V10.4118C9.49576 10.3029 9.6356 10.2563 9.69776 10.334L18.3992 20.7563C18.6789 21.0985 19.0984 21.2852 19.5335 21.2852H19.8443C20.6678 21.2852 21.3359 20.6163 21.3359 19.7918V8.77849C21.3359 7.95405 20.6678 7.28516 19.8443 7.28516C19.316 7.28516 18.8343 7.5496 18.5546 8.00071Z" fill="#0275CF"/>
</svg>
