<svg width="29" height="29" viewBox="0 0 29 29" fill="none" xmlns="http://www.w3.org/2000/svg">
<rect x="0.335938" y="0.285156" width="28" height="28" rx="7" fill="#F90522" fill-opacity="0.12"/>
<path d="M9.95906 19.0464C9.02303 19.0464 8.25615 18.8263 7.65835 18.3861C7.06841 17.938 6.77344 17.3013 6.77344 16.4759C6.77344 16.303 6.79312 16.0907 6.83242 15.8391C6.93472 15.2732 7.08023 14.5932 7.26899 13.7992C7.80385 11.6375 9.18432 10.5566 11.4103 10.5566C12.016 10.5566 12.5587 10.6588 13.0385 10.8632C13.5184 11.0597 13.8959 11.3584 14.1712 11.7594C14.4465 12.1524 14.5842 12.6241 14.5842 13.1743C14.5842 13.3394 14.5645 13.5477 14.5251 13.7992C14.4072 14.4989 14.2656 15.1789 14.1004 15.8391C13.8251 16.9161 13.3492 17.7219 12.6728 18.2564C11.9963 18.783 11.0918 19.0464 9.95906 19.0464ZM10.1242 17.3484C10.5648 17.3484 10.9384 17.2187 11.2451 16.9593C11.5598 16.6999 11.784 16.303 11.9176 15.7684C12.0986 15.0295 12.2363 14.3849 12.3306 13.8346C12.3621 13.6695 12.3778 13.5006 12.3778 13.3276C12.3778 12.6122 12.0042 12.2545 11.257 12.2545C10.8164 12.2545 10.4389 12.3842 10.1242 12.6437C9.81752 12.9031 9.59725 13.3001 9.46357 13.8346C9.32196 14.3613 9.18036 15.0059 9.03881 15.7684C9.00731 15.9256 8.99159 16.0907 8.99159 16.2636C8.99159 16.9869 9.36918 17.3484 10.1242 17.3484Z" fill="#FE0420"/>
<path d="M15.2127 18.6605C15.1285 18.6605 15.0634 18.6335 15.0176 18.5794C14.9793 18.5177 14.9678 18.4483 14.9831 18.3711L16.5669 10.8461C16.5822 10.7612 16.6243 10.6917 16.6932 10.6376C16.762 10.5837 16.8347 10.5566 16.9112 10.5566H19.964C20.8133 10.5566 21.4942 10.7341 22.0069 11.0892C22.5272 11.4442 22.7873 11.9574 22.7873 12.6289C22.7873 12.8218 22.7644 13.0225 22.7184 13.2309C22.5272 14.1185 22.1408 14.7745 21.5593 15.199C20.9855 15.6235 20.1974 15.8357 19.1951 15.8357H17.6457L17.1178 18.3711C17.1025 18.456 17.0604 18.5254 16.9916 18.5794C16.9227 18.6335 16.85 18.6605 16.7735 18.6605H15.2127ZM19.2754 14.2381C19.5967 14.2381 19.876 14.1493 20.1132 13.9718C20.3581 13.7943 20.5187 13.5396 20.5952 13.2078C20.6182 13.0765 20.6297 12.9608 20.6297 12.8605C20.6297 12.6366 20.5647 12.4668 20.4346 12.3511C20.3045 12.2276 20.0826 12.1659 19.7689 12.1659H18.3917L17.9556 14.2381H19.2754Z" fill="#FE0420"/>
</svg>
