<svg width="29" height="29" viewBox="0 0 29 29" fill="none" xmlns="http://www.w3.org/2000/svg">
<rect x="0.335938" y="0.285156" width="28" height="28" rx="7.25926" fill="#8247E5" fill-opacity="0.15"/>
<path d="M18.5374 11.5647C18.2375 11.398 17.854 11.398 17.5147 11.5647L15.1252 12.9368L13.5027 13.8087L11.1574 15.1761C10.8575 15.3428 10.474 15.3428 10.1347 15.1761L8.30081 14.0946C8.00089 13.9278 7.78947 13.5943 7.78947 13.2227V11.1455C7.78947 10.812 7.96156 10.4832 8.30081 10.2736L10.1347 9.23496C10.4347 9.06821 10.8182 9.06821 11.1574 9.23496L12.9914 10.3165C13.2913 10.4832 13.5027 10.8167 13.5027 11.1883V12.5605L15.1252 11.6457V10.2355C15.1252 9.90197 14.9531 9.57323 14.6139 9.3636L11.2017 7.41022C10.9018 7.24347 10.5183 7.24347 10.179 7.41022L6.68321 9.40648C6.34396 9.57323 6.17188 9.90673 6.17188 10.2355V14.1375C6.17188 14.471 6.34396 14.7997 6.68321 15.0093L10.1397 16.9627C10.4396 17.1295 10.8231 17.1295 11.1623 16.9627L13.5076 15.6335L15.1301 14.7187L17.4754 13.3895C17.7753 13.2227 18.1588 13.2227 18.4981 13.3895L20.332 14.4281C20.6319 14.5948 20.8434 14.9283 20.8434 15.3V17.3772C20.8434 17.7107 20.6713 18.0395 20.332 18.2491L18.5423 19.2877C18.2424 19.4545 17.8589 19.4545 17.5197 19.2877L15.6808 18.2491C15.3809 18.0823 15.1695 17.7488 15.1695 17.3772V16.048L13.547 16.9627V18.3348C13.547 18.6683 13.719 18.9971 14.0583 19.2067L17.5147 21.1601C17.8147 21.3268 18.1982 21.3268 18.5374 21.1601L21.9939 19.2067C22.2938 19.04 22.5052 18.7065 22.5052 18.3348V14.39C22.5052 14.0565 22.3331 13.7277 21.9939 13.5181L18.5374 11.5647Z" fill="#8247E5"/>
</svg>
