<svg width="29" height="29" viewBox="0 0 29 29" fill="none" xmlns="http://www.w3.org/2000/svg">
<rect x="0.335938" y="0.285156" width="28" height="28" rx="7" fill="#0088CC" fill-opacity="0.15"/>
<path fill-rule="evenodd" clip-rule="evenodd" d="M9.38975 7.42585L19.3634 7.42578C19.7162 7.42578 20.0688 7.4776 20.4373 7.64939C20.879 7.85529 21.1132 8.17982 21.2773 8.41981C21.2901 8.43849 21.302 8.45773 21.3131 8.47742C21.506 8.82087 21.6055 9.19169 21.6055 9.59059C21.6055 9.96961 21.5153 10.3825 21.3131 10.7424C21.3112 10.7459 21.3092 10.7493 21.3072 10.7527L15.0061 21.5768C14.8671 21.8155 14.6113 21.9619 14.3352 21.9609C14.059 21.96 13.8042 21.8117 13.667 21.572L7.48151 10.7711C7.47973 10.7682 7.47796 10.7652 7.47618 10.7623C7.33462 10.529 7.1157 10.1683 7.07741 9.70275C7.04222 9.27464 7.13844 8.8457 7.35354 8.4738C7.56865 8.10183 7.89248 7.80448 8.28197 7.62247C8.6996 7.42731 9.12282 7.42585 9.38975 7.42585ZM13.5647 8.97208H9.38975C9.11546 8.97208 9.01016 8.98898 8.93655 9.0234C8.83475 9.0709 8.74927 9.14908 8.69211 9.2479C8.63495 9.34678 8.6091 9.46135 8.6185 9.57605C8.6239 9.64178 8.6507 9.71697 8.80878 9.97767C8.81208 9.98313 8.81532 9.98866 8.81849 9.99419L13.5647 18.282V8.97208ZM15.111 8.97208V18.3229L19.9672 9.98104C20.022 9.88146 20.0592 9.73755 20.0592 9.59059C20.0592 9.47139 20.0345 9.36787 19.9792 9.26117C19.9212 9.17779 19.8859 9.13365 19.8564 9.10342C19.831 9.07757 19.8115 9.06372 19.784 9.0509C19.6692 8.99736 19.5517 8.97208 19.3634 8.97208H15.111Z" fill="#0088CC"/>
</svg>
