<svg width="312" height="33" viewBox="0 0 312 33" fill="none" xmlns="http://www.w3.org/2000/svg">
<path d="M52.0003 23.4525L50.569 20.229H41.2544L39.823 23.4525H35.8594L42.9059 7.99737H49.0496L56.0961 23.4525H52.0003ZM42.5976 17.2042H49.2478L45.9227 9.69744L42.5976 17.2042Z" fill="white"/>
<path d="M60.5148 18.1536C60.6323 18.8896 61.1094 19.5152 61.9462 20.0303C62.7829 20.5308 63.9941 20.781 65.5795 20.781C66.7686 20.781 67.8036 20.6559 68.6844 20.4057C69.5652 20.1554 70.0056 19.7727 70.0056 19.2576C70.0056 18.6246 69.2643 18.1463 67.7816 17.8224L62.1003 16.5198C59.0321 15.8133 57.498 14.4149 57.498 12.3248C57.498 10.794 58.2174 9.64592 59.656 8.88052C61.0947 8.11512 62.9004 7.73242 65.0731 7.73242C67.3925 7.73242 69.301 8.174 70.7984 9.05715C72.3104 9.92558 73.1546 11.162 73.3307 12.7664L69.5432 12.9209C69.4111 12.3027 68.9487 11.7728 68.1559 11.3313C67.3779 10.8897 66.2989 10.6689 64.9189 10.6689C63.9207 10.6689 63.0986 10.794 62.4526 11.0442C61.8214 11.2945 61.5058 11.6404 61.5058 12.082C61.5058 12.7002 62.2177 13.1712 63.6417 13.495L68.9046 14.6431C70.6222 15.0258 71.8994 15.541 72.7362 16.1886C73.5876 16.8363 74.0133 17.7489 74.0133 18.9264C74.0133 20.5308 73.2573 21.7304 71.7452 22.5252C70.2479 23.3201 68.1926 23.7175 65.5795 23.7175C59.9863 23.7175 57.0356 21.8997 56.7273 18.264L60.5148 18.1536Z" fill="white"/>
<path d="M74.6593 11.2871V7.99737H91.8573V11.2871H85.2732V23.4525H81.2655V11.2871H74.6593Z" fill="white"/>
<path d="M94.3463 23.4525V7.99737H109.65V11.1326H98.354V14.1132H107.228V17.0718H98.354V20.3174H110.091V23.4525H94.3463Z" fill="white"/>
<path d="M125.827 23.4525L120.476 17.7783H117.041V23.4525H113.034V7.99737H117.041H123.824C125.629 7.99737 127.112 8.41686 128.272 9.25586C129.431 10.0949 130.011 11.346 130.011 13.0093C130.011 14.4812 129.571 15.5998 128.69 16.3652C127.809 17.1159 126.598 17.5649 125.057 17.7121L130.914 23.4525H125.827ZM117.041 11.1988V14.7535H123.625C124.359 14.7535 124.939 14.6063 125.365 14.3119C125.791 14.0028 126.004 13.5686 126.004 13.0093C126.004 12.4352 125.783 11.9936 125.343 11.6845C124.917 11.3607 124.345 11.1988 123.625 11.1988H117.041Z" fill="white"/>
<path d="M133.183 23.4525V7.99737H137.191V23.4525H133.183Z" fill="white"/>
<path d="M145.348 20.1628H156.71V23.4525H139.578V20.6706L150.61 11.2871H140.327V7.99737H156.402V10.7793L145.348 20.1628Z" fill="white"/>
<path d="M175.83 7.99737H182.832L182.81 23.4525H178.979V10.0949L173.716 23.4525H168.277L163.014 10.0949V23.4525H159.16V7.99737H166.185L171.051 21.2005L175.83 7.99737Z" fill="white"/>
<path fill-rule="evenodd" clip-rule="evenodd" d="M24.2644 2.10433C21.6551 3.60155 16.8235 6.39832 15.5867 7.12738C14.3432 7.86042 13.7342 8.74036 13.6024 9.99439C13.5743 10.2615 13.5509 11.4325 13.5504 12.5964C13.5495 14.6832 13.5479 14.7161 13.4305 14.9545C13.365 15.0874 13.2338 15.2744 13.139 15.3701C12.9248 15.5862 12.4704 15.7307 12.1543 15.6832C12.0038 15.6605 11.351 15.3186 10.109 14.6118C8.04058 13.4349 7.59029 13.1993 7.25286 13.1178C6.59986 12.9602 5.88337 12.9884 5.23777 13.1971C4.96654 13.2849 3.42254 14.1479 1.20209 15.4532C0.112187 16.0938 0.00429658 16.1971 0.0039791 16.6006C0.00350288 17.1204 -0.370169 16.8754 6.24704 20.6929C10.9123 23.3843 12.3462 24.188 12.6058 24.2571C12.818 24.3136 13.1573 24.3477 13.5303 24.35C14.4877 24.3559 14.6247 24.3002 17.0314 22.9271C18.9563 21.8289 19.1278 21.7419 19.421 21.7152C19.6963 21.6902 19.7752 21.7059 20.036 21.8382C20.34 21.9924 20.5253 22.1841 20.6475 22.4704C20.6979 22.5884 20.7233 23.2779 20.7465 25.1494C20.7767 27.5908 20.7815 27.681 20.8992 28.0408C21.085 28.6088 21.3516 29.0754 21.7135 29.4663C22.0156 29.7927 22.2102 29.9194 24.1321 31.041C26.8276 32.6142 27.0135 32.7102 27.2701 32.6619C27.5275 32.6135 27.8199 32.3526 27.8913 32.1077C27.9306 31.9731 27.9429 29.7853 27.9317 24.9637L27.9154 18.0137L27.766 17.5893C27.547 16.967 27.336 16.6294 26.8873 16.1826C26.4666 15.7638 26.3484 15.6886 23.7102 14.1618C23.0792 13.7966 22.4778 13.409 22.3577 13.2902C21.9772 12.9134 21.9098 12.2995 22.1954 11.8108C22.3561 11.536 22.3525 11.5385 23.7088 10.7467C26.1306 9.33287 26.572 9.05688 26.8492 8.78339C27.2198 8.41764 27.6024 7.79543 27.7716 7.28314L27.9072 6.87246L27.9113 4.0341C27.9136 2.473 27.8971 1.12984 27.8746 1.04936C27.8104 0.81932 27.4467 0.585567 27.1535 0.585938C26.9318 0.586203 26.6743 0.72149 24.2644 2.10433ZM20.7684 12.4999C20.8407 12.5724 20.8515 12.818 20.8515 14.3868C20.8515 16.2213 20.834 16.3968 20.6512 16.3943C20.6014 16.3936 19.8462 15.9786 18.9731 15.4718C17.5052 14.62 17.3857 14.5397 17.3857 14.4061C17.3857 14.2724 17.5052 14.1921 18.9731 13.3403C19.8462 12.8335 20.5885 12.4185 20.6229 12.4178C20.6572 12.4171 20.7226 12.4541 20.7684 12.4999ZM17.137 14.6554C17.228 14.7467 17.228 18.3628 17.137 18.454C17.1021 18.489 17.0247 18.5171 16.9651 18.5164C16.8264 18.5148 13.8183 16.7713 13.7406 16.6476C13.6993 16.5818 13.6987 16.5288 13.7384 16.4656C13.8146 16.3445 16.8289 14.5955 16.9651 14.5934C17.0247 14.5925 17.1021 14.6204 17.137 14.6554ZM20.788 16.7775C20.835 16.8246 20.8515 17.3214 20.8515 18.6837C20.8515 20.2879 20.8408 20.5369 20.7684 20.6095C20.7226 20.6554 20.667 20.6929 20.6447 20.6929C20.6224 20.6929 20.1658 20.4396 19.6299 20.13C19.0941 19.8205 18.3757 19.4086 18.0336 19.2149C17.4111 18.8622 17.2586 18.7035 17.4031 18.5586C17.5286 18.4328 20.5148 16.7223 20.6161 16.7182C20.6757 16.7158 20.7531 16.7425 20.788 16.7775Z" fill="white"/>
<path d="M215.915 12.918H214.807L218.011 4.1907H219.102L222.307 12.918H221.199L218.591 5.57138H218.523L215.915 12.918ZM216.324 9.50888H220.79V10.4464H216.324V9.50888ZM228.166 7.83842L227.263 8.0941C227.206 7.94354 227.122 7.79723 227.011 7.65518C226.903 7.5103 226.756 7.39098 226.568 7.29723C226.381 7.20348 226.141 7.1566 225.848 7.1566C225.447 7.1566 225.114 7.24893 224.847 7.43359C224.582 7.61541 224.45 7.84695 224.45 8.1282C224.45 8.3782 224.541 8.57564 224.723 8.72053C224.905 8.86541 225.189 8.98615 225.575 9.08274L226.547 9.32138C227.132 9.46342 227.568 9.68075 227.855 9.97337C228.142 10.2631 228.286 10.6367 228.286 11.0941C228.286 11.4691 228.178 11.8043 227.962 12.0998C227.749 12.3952 227.45 12.6282 227.067 12.7987C226.683 12.9691 226.237 13.0543 225.729 13.0543C225.061 13.0543 224.509 12.9094 224.071 12.6197C223.634 12.3299 223.357 11.9066 223.24 11.3498L224.195 11.1112C224.286 11.4634 224.457 11.7276 224.71 11.9038C224.966 12.0799 225.3 12.168 225.712 12.168C226.18 12.168 226.553 12.0685 226.828 11.8697C227.107 11.668 227.246 11.4265 227.246 11.1452C227.246 10.918 227.166 10.7276 227.007 10.5742C226.848 10.418 226.604 10.3015 226.274 10.2248L225.183 9.96911C224.584 9.82706 224.143 9.60689 223.862 9.30859C223.584 9.00746 223.445 8.63104 223.445 8.17933C223.445 7.81001 223.548 7.48331 223.756 7.19922C223.966 6.91513 224.251 6.69212 224.612 6.53018C224.976 6.36825 225.388 6.28729 225.848 6.28729C226.496 6.28729 227.004 6.42933 227.374 6.71342C227.746 6.99751 228.01 7.37251 228.166 7.83842ZM232.646 6.37251V7.22479H229.254V6.37251H232.646ZM230.243 4.80433H231.248V11.043C231.248 11.3271 231.289 11.5401 231.372 11.6822C231.457 11.8214 231.565 11.9151 231.696 11.9634C231.829 12.0089 231.97 12.0316 232.118 12.0316C232.228 12.0316 232.319 12.0259 232.39 12.0146C232.461 12.0004 232.518 11.989 232.561 11.9805L232.765 12.8839C232.697 12.9094 232.602 12.935 232.48 12.9606C232.358 12.989 232.203 13.0032 232.015 13.0032C231.731 13.0032 231.453 12.9421 231.18 12.82C230.91 12.6978 230.686 12.5117 230.507 12.2617C230.331 12.0117 230.243 11.6964 230.243 11.3157V4.80433ZM236.833 13.0543C236.202 13.0543 235.658 12.9151 235.201 12.6367C234.746 12.3555 234.395 11.9634 234.148 11.4606C233.904 10.9549 233.782 10.3668 233.782 9.69638C233.782 9.02592 233.904 8.43501 234.148 7.92365C234.395 7.40945 234.739 7.00888 235.179 6.72195C235.623 6.43217 236.14 6.28729 236.73 6.28729C237.071 6.28729 237.408 6.34411 237.74 6.45774C238.073 6.57138 238.375 6.75604 238.648 7.01172C238.921 7.26456 239.138 7.59979 239.3 8.0174C239.462 8.43501 239.543 8.94922 239.543 9.56001V9.98615H234.498V9.11683H238.52C238.52 8.74751 238.446 8.41797 238.299 8.1282C238.154 7.83842 237.946 7.60973 237.676 7.44212C237.409 7.2745 237.094 7.1907 236.73 7.1907C236.33 7.1907 235.983 7.29013 235.691 7.48899C235.401 7.68501 235.178 7.9407 235.022 8.25604C234.865 8.57138 234.787 8.90945 234.787 9.27024V9.84979C234.787 10.3441 234.873 10.7631 235.043 11.1069C235.216 11.4478 235.456 11.7077 235.763 11.8867C236.07 12.0629 236.426 12.1509 236.833 12.1509C237.097 12.1509 237.336 12.114 237.549 12.0401C237.765 11.9634 237.951 11.8498 238.107 11.6992C238.263 11.5458 238.384 11.3555 238.469 11.1282L239.441 11.4009C239.338 11.7305 239.167 12.0202 238.925 12.2702C238.684 12.5174 238.385 12.7106 238.03 12.8498C237.675 12.9862 237.276 13.0543 236.833 13.0543ZM241.073 12.918V6.37251H242.044V7.36115H242.113C242.232 7.03729 242.448 6.7745 242.76 6.5728C243.073 6.37109 243.425 6.27024 243.817 6.27024C243.891 6.27024 243.983 6.27166 244.094 6.2745C244.205 6.27734 244.289 6.28161 244.346 6.28729V7.31001C244.311 7.30149 244.233 7.28871 244.111 7.27166C243.992 7.25178 243.865 7.24183 243.732 7.24183C243.414 7.24183 243.13 7.30859 242.88 7.44212C242.632 7.5728 242.436 7.75462 242.292 7.98757C242.15 8.21768 242.078 8.48047 242.078 8.77592V12.918H241.073ZM245.538 12.918V6.37251H246.543V12.918H245.538ZM246.049 5.28161C245.853 5.28161 245.684 5.21484 245.542 5.08132C245.403 4.9478 245.333 4.78729 245.333 4.59979C245.333 4.41229 245.403 4.25178 245.542 4.11825C245.684 3.98473 245.853 3.91797 246.049 3.91797C246.245 3.91797 246.413 3.98473 246.552 4.11825C246.694 4.25178 246.765 4.41229 246.765 4.59979C246.765 4.78729 246.694 4.9478 246.552 5.08132C246.413 5.21484 246.245 5.28161 246.049 5.28161ZM248.198 12.918V12.1509L251.914 7.3782V7.31001H248.317V6.37251H253.209V7.17365L249.596 11.9123V11.9805H253.328V12.918H248.198ZM254.877 12.918V6.37251H255.849V7.39524H255.934C256.071 7.04581 256.291 6.7745 256.595 6.58132C256.899 6.3853 257.264 6.28729 257.69 6.28729C258.122 6.28729 258.481 6.3853 258.768 6.58132C259.058 6.7745 259.284 7.04581 259.446 7.39524H259.514C259.681 7.05717 259.933 6.78871 260.268 6.58984C260.603 6.38814 261.005 6.28729 261.474 6.28729C262.059 6.28729 262.538 6.47053 262.91 6.837C263.282 7.20064 263.468 7.7674 263.468 8.53729V12.918H262.463V8.53729C262.463 8.05433 262.331 7.70916 262.066 7.50178C261.802 7.29439 261.491 7.1907 261.133 7.1907C260.673 7.1907 260.316 7.3299 260.064 7.60831C259.811 7.88388 259.684 8.23331 259.684 8.6566V12.918H258.662V8.43501C258.662 8.06286 258.541 7.76314 258.299 7.53587C258.058 7.30575 257.747 7.1907 257.366 7.1907C257.105 7.1907 256.86 7.2603 256.633 7.3995C256.409 7.53871 256.227 7.73189 256.088 7.97905C255.951 8.22337 255.883 8.50604 255.883 8.82706V12.918H254.877ZM218.08 29.0543C217.466 29.0543 216.938 28.9094 216.494 28.6197C216.051 28.3299 215.71 27.9308 215.472 27.4222C215.233 26.9137 215.114 26.3327 215.114 25.6793C215.114 25.0146 215.236 24.4279 215.48 23.9194C215.727 23.408 216.071 23.0089 216.511 22.7219C216.955 22.4322 217.472 22.2873 218.062 22.2873C218.523 22.2873 218.938 22.3725 219.307 22.543C219.676 22.7134 219.979 22.9521 220.214 23.2589C220.45 23.5657 220.597 23.9237 220.653 24.3327H219.648C219.571 24.0344 219.401 23.7702 219.136 23.5401C218.875 23.3072 218.523 23.1907 218.08 23.1907C217.688 23.1907 217.344 23.293 217.048 23.4975C216.756 23.6992 216.527 23.9847 216.362 24.354C216.2 24.7205 216.119 25.1509 216.119 25.6452C216.119 26.1509 216.199 26.5913 216.358 26.9663C216.52 27.3413 216.747 27.6325 217.04 27.8398C217.335 28.0472 217.682 28.1509 218.08 28.1509C218.341 28.1509 218.578 28.1055 218.791 28.0146C219.004 27.9237 219.185 27.793 219.332 27.6225C219.48 27.4521 219.585 27.2475 219.648 27.0089H220.653C220.597 27.3952 220.456 27.7433 220.232 28.0529C220.01 28.3597 219.716 28.604 219.349 28.7859C218.986 28.9648 218.563 29.0543 218.08 29.0543ZM222.124 28.918V22.3725H223.095V23.3612H223.163C223.283 23.0373 223.499 22.7745 223.811 22.5728C224.124 22.3711 224.476 22.2702 224.868 22.2702C224.942 22.2702 225.034 22.2717 225.145 22.2745C225.256 22.2773 225.339 22.2816 225.396 22.2873V23.31C225.362 23.3015 225.284 23.2887 225.162 23.2717C225.043 23.2518 224.916 23.2418 224.783 23.2418C224.464 23.2418 224.18 23.3086 223.93 23.4421C223.683 23.5728 223.487 23.7546 223.342 23.9876C223.2 24.2177 223.129 24.4805 223.129 24.7759V28.918H222.124ZM229.048 29.0543C228.457 29.0543 227.939 28.9137 227.493 28.6325C227.05 28.3512 226.703 27.9577 226.453 27.4521C226.206 26.9464 226.082 26.3555 226.082 25.6793C226.082 24.9975 226.206 24.4023 226.453 23.8938C226.703 23.3853 227.05 22.9904 227.493 22.7092C227.939 22.4279 228.457 22.2873 229.048 22.2873C229.639 22.2873 230.156 22.4279 230.599 22.7092C231.045 22.9904 231.392 23.3853 231.639 23.8938C231.889 24.4023 232.014 24.9975 232.014 25.6793C232.014 26.3555 231.889 26.9464 231.639 27.4521C231.392 27.9577 231.045 28.3512 230.599 28.6325C230.156 28.9137 229.639 29.0543 229.048 29.0543ZM229.048 28.1509C229.497 28.1509 229.866 28.0359 230.156 27.8058C230.446 27.5756 230.661 27.2731 230.8 26.8981C230.939 26.5231 231.009 26.1168 231.009 25.6793C231.009 25.2418 230.939 24.8342 230.8 24.4563C230.661 24.0785 230.446 23.7731 230.156 23.5401C229.866 23.3072 229.497 23.1907 229.048 23.1907C228.599 23.1907 228.23 23.3072 227.94 23.5401C227.651 23.7731 227.436 24.0785 227.297 24.4563C227.158 24.8342 227.088 25.2418 227.088 25.6793C227.088 26.1168 227.158 26.5231 227.297 26.8981C227.436 27.2731 227.651 27.5756 227.94 27.8058C228.23 28.0359 228.599 28.1509 229.048 28.1509ZM238.186 23.8384L237.282 24.0941C237.225 23.9435 237.142 23.7972 237.031 23.6552C236.923 23.5103 236.775 23.391 236.588 23.2972C236.4 23.2035 236.16 23.1566 235.868 23.1566C235.467 23.1566 235.133 23.2489 234.866 23.4336C234.602 23.6154 234.47 23.8469 234.47 24.1282C234.47 24.3782 234.561 24.5756 234.743 24.7205C234.924 24.8654 235.208 24.9862 235.595 25.0827L236.566 25.3214C237.152 25.4634 237.588 25.6808 237.875 25.9734C238.162 26.2631 238.305 26.6367 238.305 27.0941C238.305 27.4691 238.197 27.8043 237.981 28.0998C237.768 28.3952 237.47 28.6282 237.086 28.7987C236.703 28.9691 236.257 29.0543 235.748 29.0543C235.081 29.0543 234.528 28.9094 234.091 28.6197C233.653 28.3299 233.376 27.9066 233.26 27.3498L234.214 27.1112C234.305 27.4634 234.477 27.7276 234.73 27.9038C234.985 28.0799 235.319 28.168 235.731 28.168C236.2 28.168 236.572 28.0685 236.848 27.8697C237.126 27.668 237.265 27.4265 237.265 27.1452C237.265 26.918 237.186 26.7276 237.027 26.5742C236.868 26.418 236.623 26.3015 236.294 26.2248L235.203 25.9691C234.603 25.8271 234.163 25.6069 233.882 25.3086C233.603 25.0075 233.464 24.631 233.464 24.1793C233.464 23.81 233.568 23.4833 233.775 23.1992C233.985 22.9151 234.271 22.6921 234.632 22.5302C234.995 22.3683 235.407 22.2873 235.868 22.2873C236.515 22.2873 237.024 22.4293 237.393 22.7134C237.765 22.9975 238.029 23.3725 238.186 23.8384ZM244.455 23.8384L243.552 24.0941C243.495 23.9435 243.411 23.7972 243.3 23.6552C243.192 23.5103 243.045 23.391 242.857 23.2972C242.67 23.2035 242.43 23.1566 242.137 23.1566C241.737 23.1566 241.403 23.2489 241.136 23.4336C240.871 23.6154 240.739 23.8469 240.739 24.1282C240.739 24.3782 240.83 24.5756 241.012 24.7205C241.194 24.8654 241.478 24.9862 241.864 25.0827L242.836 25.3214C243.421 25.4634 243.857 25.6808 244.144 25.9734C244.431 26.2631 244.575 26.6367 244.575 27.0941C244.575 27.4691 244.467 27.8043 244.251 28.0998C244.038 28.3952 243.739 28.6282 243.356 28.7987C242.972 28.9691 242.526 29.0543 242.018 29.0543C241.35 29.0543 240.798 28.9094 240.36 28.6197C239.923 28.3299 239.646 27.9066 239.529 27.3498L240.484 27.1112C240.575 27.4634 240.746 27.7276 240.999 27.9038C241.255 28.0799 241.589 28.168 242.001 28.168C242.469 28.168 242.842 28.0685 243.117 27.8697C243.396 27.668 243.535 27.4265 243.535 27.1452C243.535 26.918 243.455 26.7276 243.296 26.5742C243.137 26.418 242.893 26.3015 242.563 26.2248L241.472 25.9691C240.873 25.8271 240.433 25.6069 240.151 25.3086C239.873 25.0075 239.734 24.631 239.734 24.1793C239.734 23.81 239.837 23.4833 240.045 23.1992C240.255 22.9151 240.54 22.6921 240.901 22.5302C241.265 22.3683 241.677 22.2873 242.137 22.2873C242.785 22.2873 243.293 22.4293 243.663 22.7134C244.035 22.9975 244.299 23.3725 244.455 23.8384ZM249.838 24.7077V25.6452H246.02V24.7077H249.838ZM254.267 29.0543C253.653 29.0543 253.125 28.9094 252.682 28.6197C252.239 28.3299 251.898 27.9308 251.659 27.4222C251.42 26.9137 251.301 26.3327 251.301 25.6793C251.301 25.0146 251.423 24.4279 251.668 23.9194C251.915 23.408 252.259 23.0089 252.699 22.7219C253.142 22.4322 253.659 22.2873 254.25 22.2873C254.71 22.2873 255.125 22.3725 255.494 22.543C255.864 22.7134 256.166 22.9521 256.402 23.2589C256.638 23.5657 256.784 23.9237 256.841 24.3327H255.835C255.759 24.0344 255.588 23.7702 255.324 23.5401C255.063 23.3072 254.71 23.1907 254.267 23.1907C253.875 23.1907 253.531 23.293 253.236 23.4975C252.943 23.6992 252.714 23.9847 252.55 24.354C252.388 24.7205 252.307 25.1509 252.307 25.6452C252.307 26.1509 252.386 26.5913 252.545 26.9663C252.707 27.3413 252.935 27.6325 253.227 27.8398C253.523 28.0472 253.869 28.1509 254.267 28.1509C254.528 28.1509 254.766 28.1055 254.979 28.0146C255.192 27.9237 255.372 27.793 255.52 27.6225C255.668 27.4521 255.773 27.2475 255.835 27.0089H256.841C256.784 27.3952 256.643 27.7433 256.419 28.0529C256.197 28.3597 255.903 28.604 255.537 28.7859C255.173 28.9648 254.75 29.0543 254.267 29.0543ZM259.317 24.9805V28.918H258.311V20.1907H259.317V23.3952H259.402C259.555 23.0572 259.786 22.7887 260.092 22.5898C260.402 22.3881 260.814 22.2873 261.328 22.2873C261.774 22.2873 262.165 22.3768 262.5 22.5558C262.835 22.7319 263.095 23.0032 263.28 23.3697C263.467 23.7333 263.561 24.1964 263.561 24.7589V28.918H262.555V24.8271C262.555 24.3072 262.42 23.9052 262.151 23.6211C261.884 23.3342 261.513 23.1907 261.038 23.1907C260.709 23.1907 260.413 23.2603 260.152 23.3995C259.893 23.5387 259.689 23.7418 259.538 24.0089C259.391 24.2759 259.317 24.5998 259.317 24.9805ZM267.327 29.0714C266.912 29.0714 266.536 28.9933 266.198 28.837C265.86 28.6779 265.591 28.4492 265.392 28.1509C265.194 27.8498 265.094 27.4862 265.094 27.06C265.094 26.685 265.168 26.381 265.316 26.1481C265.463 25.9123 265.661 25.7276 265.908 25.5941C266.155 25.4606 266.428 25.3612 266.726 25.2958C267.027 25.2276 267.33 25.1737 267.634 25.1339C268.032 25.0827 268.354 25.0444 268.601 25.0188C268.851 24.9904 269.033 24.9435 269.147 24.8782C269.263 24.8129 269.321 24.6992 269.321 24.5373V24.5032C269.321 24.0827 269.206 23.756 268.976 23.5231C268.749 23.2901 268.404 23.1737 267.941 23.1737C267.461 23.1737 267.084 23.2788 266.811 23.489C266.539 23.6992 266.347 23.9237 266.236 24.1623L265.282 23.8214C265.452 23.4237 265.679 23.114 265.963 22.8924C266.25 22.668 266.563 22.5117 266.901 22.4237C267.242 22.3327 267.577 22.2873 267.907 22.2873C268.117 22.2873 268.358 22.3129 268.631 22.364C268.907 22.4123 269.172 22.5131 269.428 22.6665C269.686 22.82 269.901 23.0515 270.071 23.3612C270.242 23.6708 270.327 24.0856 270.327 24.6055V28.918H269.321V28.0316H269.27C269.202 28.1737 269.088 28.3256 268.929 28.4876C268.77 28.6495 268.559 28.7873 268.294 28.9009C268.03 29.0146 267.708 29.0714 267.327 29.0714ZM267.48 28.168C267.878 28.168 268.213 28.0898 268.486 27.9336C268.762 27.7773 268.969 27.5756 269.108 27.3285C269.25 27.0813 269.321 26.8214 269.321 26.5487V25.6282C269.279 25.6793 269.185 25.7262 269.04 25.7688C268.898 25.8086 268.733 25.8441 268.546 25.8754C268.361 25.9038 268.181 25.9293 268.005 25.9521C267.831 25.9719 267.691 25.989 267.583 26.0032C267.321 26.0373 267.077 26.0927 266.85 26.1694C266.625 26.2433 266.444 26.3555 266.304 26.506C266.168 26.6538 266.1 26.8555 266.1 27.1112C266.1 27.4606 266.229 27.7248 266.488 27.9038C266.749 28.0799 267.08 28.168 267.48 28.168ZM272.163 28.918V22.3725H273.168V28.918H272.163ZM272.674 21.2816C272.478 21.2816 272.309 21.2148 272.167 21.0813C272.028 20.9478 271.958 20.7873 271.958 20.5998C271.958 20.4123 272.028 20.2518 272.167 20.1183C272.309 19.9847 272.478 19.918 272.674 19.918C272.87 19.918 273.038 19.9847 273.177 20.1183C273.319 20.2518 273.39 20.4123 273.39 20.5998C273.39 20.7873 273.319 20.9478 273.177 21.0813C273.038 21.2148 272.87 21.2816 272.674 21.2816ZM276.016 24.9805V28.918H275.01V22.3725H275.982V23.3952H276.067C276.221 23.0629 276.453 22.7958 276.766 22.5941C277.078 22.3896 277.482 22.2873 277.976 22.2873C278.419 22.2873 278.807 22.3782 279.14 22.56C279.472 22.739 279.73 23.0117 279.915 23.3782C280.1 23.7418 280.192 24.2021 280.192 24.7589V28.918H279.186V24.8271C279.186 24.3129 279.053 23.9123 278.786 23.6254C278.519 23.3356 278.152 23.1907 277.686 23.1907C277.365 23.1907 277.078 23.2603 276.826 23.3995C276.576 23.5387 276.378 23.7418 276.233 24.0089C276.088 24.2759 276.016 24.5998 276.016 24.9805ZM290.041 23.8384L289.138 24.0941C289.081 23.9435 288.997 23.7972 288.886 23.6552C288.778 23.5103 288.631 23.391 288.443 23.2972C288.256 23.2035 288.016 23.1566 287.723 23.1566C287.322 23.1566 286.989 23.2489 286.722 23.4336C286.457 23.6154 286.325 23.8469 286.325 24.1282C286.325 24.3782 286.416 24.5756 286.598 24.7205C286.78 24.8654 287.064 24.9862 287.45 25.0827L288.422 25.3214C289.007 25.4634 289.443 25.6808 289.73 25.9734C290.017 26.2631 290.161 26.6367 290.161 27.0941C290.161 27.4691 290.053 27.8043 289.837 28.0998C289.624 28.3952 289.325 28.6282 288.942 28.7987C288.558 28.9691 288.112 29.0543 287.604 29.0543C286.936 29.0543 286.384 28.9094 285.946 28.6197C285.509 28.3299 285.232 27.9066 285.115 27.3498L286.07 27.1112C286.161 27.4634 286.332 27.7276 286.585 27.9038C286.841 28.0799 287.175 28.168 287.587 28.168C288.055 28.168 288.428 28.0685 288.703 27.8697C288.982 27.668 289.121 27.4265 289.121 27.1452C289.121 26.918 289.041 26.7276 288.882 26.5742C288.723 26.418 288.479 26.3015 288.149 26.2248L287.058 25.9691C286.459 25.8271 286.018 25.6069 285.737 25.3086C285.459 25.0075 285.32 24.631 285.32 24.1793C285.32 23.81 285.423 23.4833 285.631 23.1992C285.841 22.9151 286.126 22.6921 286.487 22.5302C286.851 22.3683 287.263 22.2873 287.723 22.2873C288.371 22.2873 288.879 22.4293 289.249 22.7134C289.621 22.9975 289.885 23.3725 290.041 23.8384ZM294.333 29.0543C293.72 29.0543 293.191 28.9094 292.748 28.6197C292.305 28.3299 291.964 27.9308 291.725 27.4222C291.487 26.9137 291.368 26.3327 291.368 25.6793C291.368 25.0146 291.49 24.4279 291.734 23.9194C291.981 23.408 292.325 23.0089 292.765 22.7219C293.208 22.4322 293.725 22.2873 294.316 22.2873C294.777 22.2873 295.191 22.3725 295.561 22.543C295.93 22.7134 296.233 22.9521 296.468 23.2589C296.704 23.5657 296.85 23.9237 296.907 24.3327H295.902C295.825 24.0344 295.654 23.7702 295.39 23.5401C295.129 23.3072 294.777 23.1907 294.333 23.1907C293.941 23.1907 293.598 23.293 293.302 23.4975C293.01 23.6992 292.781 23.9847 292.616 24.354C292.454 24.7205 292.373 25.1509 292.373 25.6452C292.373 26.1509 292.453 26.5913 292.612 26.9663C292.774 27.3413 293.001 27.6325 293.294 27.8398C293.589 28.0472 293.936 28.1509 294.333 28.1509C294.595 28.1509 294.832 28.1055 295.045 28.0146C295.258 27.9237 295.439 27.793 295.586 27.6225C295.734 27.4521 295.839 27.2475 295.902 27.0089H296.907C296.85 27.3952 296.71 27.7433 296.485 28.0529C296.264 28.3597 295.97 28.604 295.603 28.7859C295.24 28.9648 294.816 29.0543 294.333 29.0543ZM300.304 29.0714C299.889 29.0714 299.512 28.9933 299.174 28.837C298.836 28.6779 298.568 28.4492 298.369 28.1509C298.17 27.8498 298.071 27.4862 298.071 27.06C298.071 26.685 298.145 26.381 298.292 26.1481C298.44 25.9123 298.637 25.7276 298.885 25.5941C299.132 25.4606 299.404 25.3612 299.703 25.2958C300.004 25.2276 300.306 25.1737 300.61 25.1339C301.008 25.0827 301.331 25.0444 301.578 25.0188C301.828 24.9904 302.01 24.9435 302.123 24.8782C302.24 24.8129 302.298 24.6992 302.298 24.5373V24.5032C302.298 24.0827 302.183 23.756 301.953 23.5231C301.725 23.2901 301.38 23.1737 300.917 23.1737C300.437 23.1737 300.061 23.2788 299.788 23.489C299.515 23.6992 299.324 23.9237 299.213 24.1623L298.258 23.8214C298.429 23.4237 298.656 23.114 298.94 22.8924C299.227 22.668 299.539 22.5117 299.877 22.4237C300.218 22.3327 300.554 22.2873 300.883 22.2873C301.093 22.2873 301.335 22.3129 301.608 22.364C301.883 22.4123 302.149 22.5131 302.404 22.6665C302.663 22.82 302.877 23.0515 303.048 23.3612C303.218 23.6708 303.304 24.0856 303.304 24.6055V28.918H302.298V28.0316H302.247C302.179 28.1737 302.065 28.3256 301.906 28.4876C301.747 28.6495 301.535 28.7873 301.271 28.9009C301.007 29.0146 300.684 29.0714 300.304 29.0714ZM300.457 28.168C300.855 28.168 301.19 28.0898 301.463 27.9336C301.738 27.7773 301.946 27.5756 302.085 27.3285C302.227 27.0813 302.298 26.8214 302.298 26.5487V25.6282C302.255 25.6793 302.162 25.7262 302.017 25.7688C301.875 25.8086 301.71 25.8441 301.522 25.8754C301.338 25.9038 301.157 25.9293 300.981 25.9521C300.808 25.9719 300.667 25.989 300.559 26.0032C300.298 26.0373 300.054 26.0927 299.826 26.1694C299.602 26.2433 299.42 26.3555 299.281 26.506C299.145 26.6538 299.076 26.8555 299.076 27.1112C299.076 27.4606 299.206 27.7248 299.464 27.9038C299.725 28.0799 300.056 28.168 300.457 28.168ZM306.145 24.9805V28.918H305.139V22.3725H306.111V23.3952H306.196C306.349 23.0629 306.582 22.7958 306.895 22.5941C307.207 22.3896 307.611 22.2873 308.105 22.2873C308.548 22.2873 308.936 22.3782 309.268 22.56C309.601 22.739 309.859 23.0117 310.044 23.3782C310.229 23.7418 310.321 24.2021 310.321 24.7589V28.918H309.315V24.8271C309.315 24.3129 309.182 23.9123 308.915 23.6254C308.648 23.3356 308.281 23.1907 307.815 23.1907C307.494 23.1907 307.207 23.2603 306.955 23.3995C306.705 23.5387 306.507 23.7418 306.362 24.0089C306.217 24.2759 306.145 24.5998 306.145 24.9805Z" fill="white"/>
<line x1="199.5" y1="-2.18557e-08" x2="199.5" y2="32" stroke="#DDE4EF"/>
</svg>
