<svg width="28" height="28" viewBox="0 0 28 28" fill="none" xmlns="http://www.w3.org/2000/svg">
<rect width="28" height="28" rx="14" fill="#023898"/>
<rect width="28" height="28" rx="14" fill="url(#paint0_radial_2516_47433)" fill-opacity="0.7"/>
<rect width="28" height="28" rx="14" fill="#023288"/>
<g filter="url(#filter0_d_2516_47433)">
<path fill-rule="evenodd" clip-rule="evenodd" d="M17.8452 6.63514C16.521 7.39431 14.069 8.81242 13.4413 9.1821C12.8103 9.55379 12.5012 9.99997 12.4343 10.6358C12.4201 10.7713 12.4082 11.365 12.408 11.9552C12.4075 13.0133 12.4067 13.03 12.3471 13.1509C12.3138 13.2183 12.2473 13.3131 12.1992 13.3616C12.0905 13.4712 11.8599 13.5444 11.6994 13.5203C11.6231 13.5089 11.2918 13.3355 10.6614 12.9771C9.61177 12.3803 9.38325 12.2609 9.21201 12.2196C8.88062 12.1396 8.517 12.1539 8.18937 12.2598C8.05172 12.3043 7.26816 12.7419 6.1413 13.4037C5.58818 13.7286 5.53343 13.781 5.53327 13.9855C5.53303 14.2491 5.34339 14.1249 8.70156 16.0605C11.0692 17.4253 11.7968 17.8328 11.9286 17.8678C12.0363 17.8964 12.2084 17.9137 12.3978 17.9149C12.8836 17.9179 12.9532 17.8896 14.1745 17.1934C15.1514 16.6365 15.2384 16.5924 15.3872 16.5789C15.527 16.5662 15.567 16.5742 15.6993 16.6413C15.8536 16.7195 15.9477 16.8167 16.0097 16.9618C16.0352 17.0217 16.0481 17.3713 16.0599 18.3202C16.0752 19.5582 16.0777 19.6039 16.1374 19.7863C16.2317 20.0743 16.367 20.311 16.5506 20.5091C16.704 20.6746 16.8027 20.7389 17.7781 21.3076C19.146 22.1053 19.2404 22.154 19.3706 22.1295C19.5012 22.1049 19.6496 21.9727 19.6858 21.8485C19.7058 21.7802 19.712 20.6709 19.7063 18.2261L19.6981 14.702L19.6222 14.4868C19.5111 14.1713 19.404 14.0001 19.1763 13.7736C18.9628 13.5612 18.9028 13.5231 17.5639 12.7489C17.2437 12.5637 16.9385 12.3672 16.8776 12.307C16.6845 12.1159 16.6503 11.8046 16.7952 11.5569C16.8768 11.4175 16.8749 11.4188 17.5633 11.0173C18.7923 10.3004 19.0163 10.1605 19.157 10.0218C19.3451 9.83633 19.5392 9.52084 19.6251 9.26108L19.6939 9.05284L19.696 7.61364C19.6971 6.82208 19.6888 6.14102 19.6774 6.10021C19.6448 5.98357 19.4602 5.86505 19.3114 5.86523C19.1989 5.86537 19.0682 5.93397 17.8452 6.63514ZM16.071 11.9063C16.1077 11.943 16.1132 12.0676 16.1132 12.863C16.1132 13.7932 16.1043 13.8822 16.0116 13.8809C15.9862 13.8806 15.603 13.6701 15.1599 13.4132C14.415 12.9812 14.3543 12.9405 14.3543 12.8728C14.3543 12.805 14.415 12.7643 15.1599 12.3324C15.603 12.0754 15.9797 11.865 15.9972 11.8646C16.0146 11.8643 16.0478 11.883 16.071 11.9063ZM14.2281 12.9992C14.2743 13.0455 14.2743 14.8791 14.2281 14.9253C14.2104 14.9431 14.1711 14.9573 14.1409 14.957C14.0705 14.9562 12.5439 14.0721 12.5045 14.0093C12.4835 13.976 12.4832 13.9491 12.5034 13.9171C12.542 13.8557 14.0717 12.9688 14.1409 12.9678C14.1712 12.9673 14.2104 12.9815 14.2281 12.9992ZM16.081 14.0753C16.1048 14.0991 16.1132 14.351 16.1132 15.0418C16.1132 15.8552 16.1078 15.9815 16.071 16.0183C16.0478 16.0415 16.0196 16.0605 16.0082 16.0605C15.9969 16.0605 15.7652 15.9321 15.4933 15.7752C15.2213 15.6182 14.8568 15.4094 14.6832 15.3111C14.3672 15.1323 14.2898 15.0518 14.3632 14.9783C14.4269 14.9145 15.9423 14.0472 15.9937 14.0452C16.024 14.044 16.0633 14.0575 16.081 14.0753Z" fill="white"/>
</g>
<defs>
<filter id="filter0_d_2516_47433" x="2.85852" y="5.86523" width="19.5251" height="21.615" filterUnits="userSpaceOnUse" color-interpolation-filters="sRGB">
<feFlood flood-opacity="0" result="BackgroundImageFix"/>
<feColorMatrix in="SourceAlpha" type="matrix" values="0 0 0 0 0 0 0 0 0 0 0 0 0 0 0 0 0 0 127 0" result="hardAlpha"/>
<feOffset dy="2.67273"/>
<feGaussianBlur stdDeviation="1.33636"/>
<feComposite in2="hardAlpha" operator="out"/>
<feColorMatrix type="matrix" values="0 0 0 0 0.00197917 0 0 0 0 0.172267 0 0 0 0 0.475 0 0 0 0.35 0"/>
<feBlend mode="normal" in2="BackgroundImageFix" result="effect1_dropShadow_2516_47433"/>
<feBlend mode="normal" in="SourceGraphic" in2="effect1_dropShadow_2516_47433" result="shape"/>
</filter>
<radialGradient id="paint0_radial_2516_47433" cx="0" cy="0" r="1" gradientUnits="userSpaceOnUse" gradientTransform="translate(7.38889 5.83333) rotate(51.0441) scale(23.5045 23.5045)">
<stop stop-color="white" stop-opacity="0.59"/>
<stop offset="0.697917" stop-color="white" stop-opacity="0"/>
<stop offset="1" stop-color="white" stop-opacity="0"/>
</radialGradient>
</defs>
</svg>
