<svg width="146" height="26" viewBox="0 0 146 26" fill="none" xmlns="http://www.w3.org/2000/svg">
<path d="M41.4417 18.4303L40.301 15.8653H32.8777L31.737 18.4303H28.5781L34.1939 6.13269H39.0901L44.7058 18.4303H41.4417ZM33.9482 13.4585H39.248L36.5981 7.48542L33.9482 13.4585Z" fill="white"/>
<path d="M48.2273 14.214C48.3209 14.7995 48.7011 15.2973 49.368 15.7072C50.0349 16.1054 51.0001 16.3045 52.2636 16.3045C53.2113 16.3045 54.0361 16.205 54.738 16.0059C55.44 15.8068 55.791 15.5023 55.791 15.0923C55.791 14.5887 55.2002 14.2081 54.0185 13.9504L49.4908 12.9139C47.0456 12.3517 45.8231 11.2391 45.8231 9.57601C45.8231 8.35796 46.3963 7.44443 47.5429 6.83541C48.6894 6.22639 50.1284 5.92188 51.86 5.92188C53.7085 5.92188 55.2294 6.27323 56.4227 6.97595C57.6278 7.66696 58.3005 8.65076 58.4409 9.92737L55.4224 10.0503C55.3171 9.55844 54.9486 9.13681 54.3168 8.78545C53.6968 8.43409 52.8369 8.25841 51.7371 8.25841C50.9416 8.25841 50.2864 8.35796 49.7716 8.55707C49.2685 8.75617 49.017 9.0314 49.017 9.38276C49.017 9.87466 49.5844 10.2494 50.7193 10.5071L54.9135 11.4206C56.2824 11.7252 57.3002 12.1351 57.9671 12.6504C58.6456 13.1657 58.9849 13.8919 58.9849 14.8288C58.9849 16.1054 58.3824 17.06 57.1774 17.6924C55.984 18.3249 54.3461 18.6411 52.2636 18.6411C47.8061 18.6411 45.4545 17.1946 45.2088 14.3018L48.2273 14.214Z" fill="white"/>
<path d="M59.4997 8.75032V6.13269H73.2056V8.75032H67.9584V18.4303H64.7645V8.75032H59.4997Z" fill="white"/>
<path d="M75.1892 18.4303V6.13269H87.3859V8.62734H78.3832V10.999H85.4555V13.3531H78.3832V15.9356H87.7369V18.4303H75.1892Z" fill="white"/>
<path d="M100.278 18.4303L96.0136 13.9153H93.276V18.4303H90.082V6.13269H93.276H98.6811C100.12 6.13269 101.302 6.46648 102.226 7.13406C103.15 7.80165 103.612 8.79716 103.612 10.1206C103.612 11.2918 103.261 12.1819 102.559 12.7909C101.858 13.3883 100.892 13.7455 99.6639 13.8626L104.332 18.4303H100.278ZM93.276 8.68004V11.5085H98.5232C99.1082 11.5085 99.5703 11.3914 99.9096 11.1571C100.249 10.9112 100.418 10.5657 100.418 10.1206C100.418 9.66385 100.243 9.31249 99.892 9.06654C99.5527 8.80888 99.0965 8.68004 98.5232 8.68004H93.276Z" fill="white"/>
<path d="M106.14 18.4303V6.13269H109.334V18.4303H106.14Z" fill="white"/>
<path d="M115.835 15.8126H124.89V18.4303H111.237V16.2167L120.029 8.75032H111.834V6.13269H124.644V8.34625L115.835 15.8126Z" fill="white"/>
<path d="M140.127 6.13269H145.708L145.691 18.4303H142.637V7.80165L138.443 18.4303H134.108L129.914 7.80165V18.4303H126.843V6.13269H132.441L136.319 16.6383L140.127 6.13269Z" fill="white"/>
<path fill-rule="evenodd" clip-rule="evenodd" d="M19.3375 1.44255C17.258 2.63388 13.4075 4.85924 12.4218 5.43935C11.4308 6.02262 10.9455 6.72279 10.8404 7.72061C10.8181 7.93316 10.7994 8.86487 10.799 9.79101C10.7983 11.4515 10.797 11.4776 10.7034 11.6673C10.6512 11.7731 10.5467 11.9219 10.4711 11.998C10.3004 12.17 9.93829 12.2849 9.68633 12.2471C9.5664 12.2291 9.04616 11.957 8.05632 11.3947C6.40794 10.4582 6.04908 10.2707 5.78017 10.2059C5.25976 10.0805 4.68875 10.1029 4.17424 10.269C3.95808 10.3388 2.72759 11.0256 0.958006 12.0641C0.0894072 12.5739 0.00342416 12.6561 0.00317114 12.9771C0.00279162 13.3907 -0.295006 13.1958 4.97857 16.2333C8.69658 18.3749 9.83928 19.0144 10.0462 19.0694C10.2153 19.1143 10.4857 19.1414 10.783 19.1432C11.5459 19.1479 11.6552 19.1036 13.5732 18.0111C15.1072 17.1372 15.2439 17.068 15.4776 17.0468C15.697 17.0269 15.7599 17.0394 15.9677 17.1446C16.2099 17.2674 16.3576 17.4198 16.455 17.6477C16.4952 17.7416 16.5154 18.2902 16.5339 19.7793C16.558 21.7219 16.5618 21.7937 16.6556 22.08C16.8037 22.5319 17.0162 22.9033 17.3046 23.2143C17.5453 23.474 17.7004 23.5748 19.2321 24.4673C21.3803 25.719 21.5284 25.7954 21.7329 25.757C21.938 25.7184 22.1711 25.5109 22.228 25.316C22.2593 25.2089 22.2691 23.4681 22.2601 19.6316L22.2472 14.1015L22.1281 13.7638C21.9536 13.2687 21.7854 13 21.4278 12.6445C21.0925 12.3113 20.9983 12.2515 18.8958 11.0366C18.3929 10.746 17.9136 10.4376 17.818 10.343C17.5147 10.0433 17.461 9.55478 17.6886 9.16594C17.8167 8.94723 17.8138 8.94921 18.8947 8.31921C20.8248 7.19424 21.1766 6.97464 21.3974 6.75703C21.6928 6.466 21.9977 5.97091 22.1325 5.56329L22.2407 5.23651L22.2439 2.97805C22.2457 1.73589 22.2326 0.667156 22.2147 0.603117C22.1635 0.420076 21.8737 0.23408 21.64 0.234375C21.4633 0.234586 21.2581 0.342233 19.3375 1.44255ZM16.5514 9.71422C16.609 9.77193 16.6176 9.96734 16.6176 11.2156C16.6176 12.6753 16.6037 12.8149 16.458 12.813C16.4182 12.8124 15.8164 12.4822 15.1206 12.079C13.9508 11.4011 13.8555 11.3373 13.8555 11.2309C13.8555 11.1246 13.9508 11.0607 15.1206 10.3829C15.8164 9.9797 16.408 9.64942 16.4354 9.64887C16.4627 9.64832 16.5149 9.67775 16.5514 9.71422ZM13.6573 11.4293C13.7299 11.502 13.7299 14.3793 13.6573 14.4519C13.6295 14.4797 13.5678 14.5021 13.5203 14.5015C13.4098 14.5003 11.0125 13.113 10.9506 13.0145C10.9177 12.9621 10.9172 12.92 10.9488 12.8697C11.0096 12.7733 13.4118 11.3817 13.5203 11.38C13.5679 11.3793 13.6295 11.4015 13.6573 11.4293ZM16.567 13.1179C16.6044 13.1554 16.6176 13.5507 16.6176 14.6346C16.6176 15.9111 16.6091 16.1092 16.5514 16.167C16.5149 16.2035 16.4706 16.2333 16.4528 16.2333C16.435 16.2333 16.0711 16.0318 15.6441 15.7855C15.217 15.5392 14.6445 15.2114 14.3719 15.0573C13.8757 14.7767 13.7543 14.6504 13.8694 14.5351C13.9694 14.435 16.3493 13.0739 16.43 13.0707C16.4775 13.0688 16.5392 13.0901 16.567 13.1179Z" fill="white"/>
</svg>
