<svg width="32" height="32" viewBox="0 0 32 32" fill="none" xmlns="http://www.w3.org/2000/svg">
<g clip-path="url(#clip0_2516_47846)">
<circle cx="16" cy="16" r="12" fill="white"/>
<path d="M16 0C7.164 0 0 7.164 0 16C0 24.836 7.164 32 16 32C24.836 32 32 24.836 32 16C32 7.164 24.836 0 16 0ZM18.9573 24.8213C18.4853 24.9133 18.3333 24.6227 18.3333 24.3733V21.812C18.3333 20.9413 18.028 20.3733 17.692 20.084C19.772 19.8533 21.956 19.064 21.956 15.4787C21.956 14.4587 21.592 13.6267 20.9947 12.9733C21.0907 12.7373 21.4107 11.788 20.9027 10.5027C20.9027 10.5027 20.12 10.252 18.3387 11.4587C17.5907 11.2533 16.7933 11.1507 16 11.1467C15.2067 11.1507 14.4093 11.2533 13.6627 11.46C11.88 10.2533 11.096 10.504 11.096 10.504C10.5907 11.7893 10.9093 12.7387 11.0067 12.9733C10.4093 13.6267 10.044 14.4587 10.044 15.4787C10.044 19.0547 12.2227 19.8547 14.296 20.0907C14.0293 20.324 13.788 20.7347 13.704 21.3387C13.1707 21.5773 11.82 21.9893 10.988 20.5627C10.988 20.5627 10.4947 19.6667 9.55733 19.6C9.55733 19.6 8.64667 19.588 9.49333 20.168C9.49333 20.168 10.1067 20.4547 10.5293 21.5333C10.5293 21.5333 11.0693 23.2 13.6667 22.6347V24.372C13.6667 24.6187 13.516 24.908 13.0507 24.8213C9.34133 23.588 6.66667 20.0893 6.66667 15.9667C6.66667 10.8107 10.8467 6.63333 16 6.63333C21.1533 6.63333 25.3333 10.8107 25.3333 15.9667C25.3333 20.088 22.6627 23.5867 18.9573 24.8213Z" fill="#2C2D54"/>
</g>
<defs>
<clipPath id="clip0_2516_47846">
<rect width="32" height="32" fill="white"/>
</clipPath>
</defs>
</svg>
