<svg width="69" height="69" viewBox="0 0 69 69" fill="none" xmlns="http://www.w3.org/2000/svg">
<path d="M46.9978 55.8013C42.1111 58.6226 36.4138 59.7078 30.8321 58.8804C25.2505 58.0531 20.1129 55.3618 16.2548 51.2442C12.3966 47.1267 10.0449 41.825 9.58206 36.2014C9.11919 30.5778 10.5724 24.963 13.7053 20.27C16.8382 15.577 21.4666 12.0819 26.8379 10.353C32.2091 8.62416 38.0072 8.76318 43.2895 10.7475C48.5717 12.7318 53.0272 16.4447 55.9317 21.2825C58.8361 26.1202 60.0185 31.7982 59.2866 37.3932" stroke="#E2E6EE" stroke-width="3" stroke-linecap="round"/>
<path d="M59.5 34.1484C59.5 39.7911 57.5911 45.2678 54.0838 49.6879C50.5764 54.1081 45.6769 57.2117 40.182 58.4942C34.687 59.7766 28.9198 59.1624 23.8182 56.7515C18.7165 54.3406 14.5806 50.2747 12.0828 45.215C9.58501 40.1553 8.87236 34.3994 10.0607 28.8834C11.2491 23.3673 14.2685 18.4154 18.6281 14.8331C22.9877 11.2507 28.431 9.24852 34.0728 9.15209C39.7146 9.05566 45.2231 10.8707 49.7025 14.3019" stroke="#193EFF" stroke-width="3" stroke-linecap="round"/>
</svg>
