<svg width="24" height="27" viewBox="0 0 24 27" fill="none" xmlns="http://www.w3.org/2000/svg">
<path fill-rule="evenodd" clip-rule="evenodd" d="M12.7281 0.0708001C13.15 0.189874 13.407 0.318612 13.7559 0.585538C14.2579 0.969691 14.5916 1.46104 14.7804 2.09422C14.8778 2.42092 14.8923 2.5712 14.8726 3.05119L14.8493 3.62053L16.9758 4.85774L19.1023 6.0949L19.351 5.8981C19.6808 5.63708 20.1074 5.43864 20.5352 5.34735C20.9795 5.25246 21.2639 5.25325 21.723 5.35051C22.7535 5.56886 23.6573 6.43744 23.9229 7.46454C24.0248 7.85894 24.0259 8.54028 23.9251 8.93013C23.6826 9.86789 22.9397 10.6626 21.9982 10.9913C21.9126 11.0212 21.9065 11.1891 21.9065 13.5084C21.9065 15.8278 21.9126 15.9957 21.9982 16.0256C22.9397 16.3543 23.6826 17.149 23.9251 18.0868C24.0259 18.4766 24.0248 19.1579 23.9229 19.5523C23.7305 20.2963 23.1076 21.0744 22.4307 21.4164C22.062 21.6027 21.4966 21.7441 21.1203 21.7441C20.5418 21.7441 19.7735 21.467 19.3138 21.0925L19.1023 20.9203L16.9747 22.159L14.8471 23.3977L14.8715 23.9081C14.9097 24.7078 14.7444 25.2875 14.315 25.86C13.9873 26.2968 13.4923 26.6699 12.9959 26.8541C12.6512 26.982 12.5285 27 12 27C11.4715 27 11.3488 26.982 11.0041 26.8541C10.5077 26.6699 10.0127 26.2968 9.68502 25.86C9.25574 25.2877 9.09032 24.7078 9.12848 23.9088L9.15285 23.3992L7.02526 22.1597L4.89772 20.9202L4.68622 21.0925C4.2267 21.4669 3.45824 21.7441 2.87973 21.7441C2.75 21.7441 2.47875 21.7091 2.27695 21.6664C1.24652 21.448 0.342669 20.5794 0.077133 19.5523C-0.0248149 19.1579 -0.0258628 18.4766 0.0749319 18.0868C0.317405 17.149 1.06034 16.3543 2.00177 16.0256C2.08737 15.9957 2.0935 15.8278 2.0935 13.5084C2.0935 11.1891 2.08737 11.0212 2.00177 10.9913C1.06034 10.6626 0.317405 9.86789 0.0749319 8.93013C-0.0258628 8.54028 -0.0248149 7.85894 0.077133 7.46454C0.269497 6.72063 0.892349 5.94251 1.56935 5.60044C1.93798 5.41414 2.50339 5.27279 2.87973 5.27279C3.4629 5.27279 4.17848 5.52572 4.64901 5.89815L4.89772 6.09506L7.02526 4.85642L9.15285 3.61773L9.12848 3.10806C9.09032 2.30913 9.25574 1.72918 9.68502 1.15688C10.0042 0.731437 10.5014 0.351615 10.9771 0.169861C11.4414 -0.00756181 12.282 -0.0551387 12.7281 0.0708001ZM13.0468 5.61982L12.7862 5.71423V6.72148V7.72872H12H11.2138V6.72148V5.71423L10.9532 5.61982C10.8099 5.56791 10.5295 5.41008 10.3302 5.26904L9.96786 5.01267L7.85704 6.23932L5.74617 7.46597V8.2009V8.93589L6.55373 9.4049C6.99785 9.6629 7.38095 9.89297 7.40506 9.9162C7.42912 9.93944 7.35516 10.0978 7.24063 10.2681C7.12605 10.4384 6.94768 10.7484 6.84416 10.957L6.65599 11.3361L5.77222 10.821L4.88844 10.306L4.68339 10.4794C4.48495 10.6474 4.10661 10.8601 3.8101 10.9704L3.66596 11.024V13.5084V15.9929L3.8101 16.0465C4.10661 16.1568 4.48495 16.3695 4.68339 16.5375L4.88844 16.7109L5.77222 16.1959L6.65599 15.6808L6.84416 16.0599C6.94768 16.2685 7.12605 16.5784 7.24063 16.7487C7.35516 16.9191 7.42912 17.0774 7.40506 17.1007C7.38095 17.1239 6.99785 17.354 6.55373 17.612L5.74617 18.081V18.8149V19.5488L7.85667 20.7767L9.96718 22.0046L10.3299 21.7481C10.5294 21.6069 10.8099 21.449 10.9532 21.3971L11.2138 21.3027V20.2938V19.2849H12H12.7862V20.2938V21.3027L13.0468 21.3971C13.1901 21.449 13.4706 21.6069 13.67 21.748L14.0325 22.0044L16.1432 20.7761L18.2538 19.5479V18.8163V18.0847L17.4463 17.6137C17.0022 17.3547 16.619 17.1238 16.5949 17.1006C16.5709 17.0774 16.6448 16.9191 16.7594 16.7487C16.8739 16.5784 17.0523 16.2685 17.1558 16.0599L17.344 15.6808L18.2278 16.1959L19.1116 16.7109L19.3166 16.5375C19.515 16.3695 19.8934 16.1568 20.1899 16.0465L20.334 15.9929V13.5084V11.024L20.1899 10.9704C19.8934 10.8601 19.515 10.6474 19.3166 10.4794L19.1116 10.306L18.2278 10.821L17.344 11.3361L17.1558 10.957C17.0523 10.7484 16.8739 10.4384 16.7594 10.2681C16.6448 10.0978 16.5709 9.93949 16.5949 9.91631C16.619 9.89313 17.0022 9.66221 17.4463 9.40316L18.2538 8.93214V8.20058V7.46903L16.1432 6.24074L14.0325 5.01246L13.67 5.26893C13.4706 5.41002 13.1901 5.56791 13.0468 5.61982ZM13.0001 9.39022C14.2643 9.70356 15.3346 10.6074 15.8608 11.806C16.3047 12.8172 16.3026 14.2045 15.8556 15.2225C15.5447 15.9308 14.9193 16.6631 14.2653 17.0845C12.9023 17.9629 11.0898 17.9579 9.71485 17.0717C8.51899 16.3011 7.80751 14.9719 7.80751 13.5084C7.80751 11.5156 9.10725 9.85057 11.0243 9.38752C11.5837 9.25245 12.449 9.25361 13.0001 9.39022Z" fill="#193EFF"/>
</svg>
