<svg width="40" height="40" viewBox="0 0 40 40" fill="none" xmlns="http://www.w3.org/2000/svg">
<path d="M17.5667 36.5667C17.1834 36.5667 16.8167 36.4 16.5667 36.0667L14.8834 33.8167C14.5334 33.35 14.0667 33.0833 13.5667 33.05C13.0667 33.0166 12.5667 33.25 12.1667 33.6667C9.75003 36.25 7.91672 36.0334 7.03339 35.7C6.13339 35.35 4.6167 34.2 4.6167 30.5V11.7333C4.6167 4.33335 6.75003 2.08333 13.7334 2.08333H26.3167C33.3001 2.08333 35.4334 4.33335 35.4334 11.7333V18.8333C35.4334 19.5166 34.8667 20.0833 34.1834 20.0833C33.5001 20.0833 32.9334 19.5166 32.9334 18.8333V11.7333C32.9334 5.71668 31.8834 4.58333 26.3167 4.58333H13.7334C8.1667 4.58333 7.1167 5.71668 7.1167 11.7333V30.5C7.1167 32.25 7.55003 33.2166 7.95003 33.3666C8.25003 33.4833 9.06674 33.3167 10.3334 31.9667C11.2501 31 12.4501 30.4833 13.7001 30.55C14.9334 30.6166 16.1001 31.2667 16.8834 32.3167L18.5834 34.5667C19 35.1167 18.8834 35.9 18.3334 36.3167C18.0834 36.5 17.8167 36.5667 17.5667 36.5667Z" fill="#193EFF"/>
<path d="M30.3334 36.9167C26.7 36.9167 23.75 33.9667 23.75 30.3334C23.75 26.7 26.7 23.75 30.3334 23.75C33.9667 23.75 36.9167 26.7 36.9167 30.3334C36.9167 33.9667 33.9667 36.9167 30.3334 36.9167ZM30.3334 26.25C28.0834 26.25 26.25 28.0834 26.25 30.3334C26.25 32.5834 28.0834 34.4167 30.3334 34.4167C32.5834 34.4167 34.4167 32.5834 34.4167 30.3334C34.4167 28.0834 32.5834 26.25 30.3334 26.25Z" fill="#193EFF"/>
<path d="M36.6666 37.9167C36.3499 37.9167 36.0332 37.8 35.7832 37.55L34.1166 35.8833C33.6332 35.4 33.6332 34.6 34.1166 34.1167C34.5999 33.6333 35.3999 33.6333 35.8832 34.1167L37.5499 35.7833C38.0332 36.2667 38.0332 37.0667 37.5499 37.55C37.2999 37.8 36.9832 37.9167 36.6666 37.9167Z" fill="#193EFF"/>
<path d="M26.6667 12.9167H13.3333C12.65 12.9167 12.0833 12.35 12.0833 11.6667C12.0833 10.9833 12.65 10.4167 13.3333 10.4167H26.6667C27.35 10.4167 27.9167 10.9833 27.9167 11.6667C27.9167 12.35 27.35 12.9167 26.6667 12.9167Z" fill="#193EFF"/>
<path d="M25 19.5833H15C14.3167 19.5833 13.75 19.0167 13.75 18.3333C13.75 17.65 14.3167 17.0833 15 17.0833H25C25.6833 17.0833 26.25 17.65 26.25 18.3333C26.25 19.0167 25.6833 19.5833 25 19.5833Z" fill="#193EFF"/>
</svg>
