<svg width="32" height="32" viewBox="0 0 32 32" fill="none" xmlns="http://www.w3.org/2000/svg">
<path d="M24.7198 5.49329L17.3864 2.74662C16.6264 2.46662 15.3864 2.46662 14.6264 2.74662L7.29309 5.49329C5.87976 6.02662 4.73309 7.67995 4.73309 9.18662V19.9866C4.73309 21.0666 5.43976 22.4933 6.30643 23.1333L13.6398 28.6133C14.9331 29.5866 17.0531 29.5866 18.3464 28.6133L25.6798 23.1333C26.5464 22.48 27.2531 21.0666 27.2531 19.9866V9.18662C27.2664 7.67995 26.1198 6.02662 24.7198 5.49329ZM20.6398 12.96L14.9064 18.6933C14.7064 18.8933 14.4531 18.9866 14.1998 18.9866C13.9464 18.9866 13.6931 18.8933 13.4931 18.6933L11.3598 16.5333C10.9731 16.1466 10.9731 15.5066 11.3598 15.12C11.7464 14.7333 12.3864 14.7333 12.7731 15.12L14.2131 16.56L19.2398 11.5333C19.6264 11.1466 20.2664 11.1466 20.6531 11.5333C21.0398 11.92 21.0398 12.5733 20.6398 12.96Z" fill="#193EFF"/>
</svg>
