<svg width="14" height="14" viewBox="0 0 14 14" fill="none" xmlns="http://www.w3.org/2000/svg">
<path fill-rule="evenodd" clip-rule="evenodd" d="M4.8862 0.0377358C3.02873 0.290874 1.4291 1.44042 0.583758 3.12961C-0.192728 4.68124 -0.194696 6.55349 0.578537 8.1147C1.42964 9.83313 3.02881 10.9761 4.93354 11.2273C5.34274 11.2812 6.17767 11.2667 6.55029 11.1992C7.43674 11.0386 8.25204 10.6991 8.92107 10.2119L9.09114 10.088L10.9915 11.9886C12.4555 13.4528 12.9201 13.9019 13.0148 13.9444C13.2791 14.063 13.6456 13.9854 13.8248 13.773C14.0034 13.5613 14.0506 13.2573 13.9425 13.016C13.9 12.9213 13.4508 12.4555 11.9899 10.9918L10.0925 9.09068L10.2987 8.78978C10.8042 8.05186 11.1473 7.11106 11.2408 6.20656C11.2807 5.8199 11.2583 5.05376 11.1971 4.71396C10.9732 3.4701 10.409 2.39977 9.53809 1.56669C8.64912 0.716346 7.57262 0.199893 6.34528 0.0349457C5.98996 -0.0128152 5.24666 -0.0113655 4.8862 0.0377358ZM6.34998 1.47092C8.04968 1.7617 9.38357 3.04503 9.76688 4.75825C9.82258 5.00728 9.8304 5.11457 9.8304 5.63033C9.8304 6.1461 9.82258 6.25339 9.76688 6.50242C9.39989 8.14271 8.19627 9.36384 6.56395 9.75195C6.1386 9.85308 5.39697 9.87162 4.9351 9.79265C2.58031 9.3901 1.01695 7.1141 1.49623 4.78617C1.85163 3.05994 3.24642 1.73191 4.99223 1.45752C5.34189 1.40256 5.98769 1.40893 6.34998 1.47092Z" fill="white"/>
</svg>
