<svg width="32" height="32" viewBox="0 0 32 32" fill="none" xmlns="http://www.w3.org/2000/svg">
<path d="M20 20.6667C20 25.4533 16.12 29.3333 11.3333 29.3333C6.54667 29.3333 2.66667 25.4533 2.66667 20.6667C2.66667 15.88 6.54667 12 11.3333 12C11.56 12 11.8 12.0133 12.0267 12.0267C16.2533 12.36 19.64 15.7467 19.9733 19.9733C19.9867 20.2 20 20.44 20 20.6667Z" fill="#193EFF"/>
<path d="M29.3333 11.3334C29.3333 15.6801 26.1333 19.2667 21.9733 19.8934V19.8134C21.56 14.6401 17.36 10.4401 12.1467 10.0267H12.1067C12.7333 5.86675 16.32 2.66675 20.6667 2.66675C25.4533 2.66675 29.3333 6.54675 29.3333 11.3334Z" fill="#193EFF"/>
<path d="M7.45334 2.66675H4.00001C3.26667 2.66675 2.66667 3.26675 2.66667 4.00008V7.45342C2.66667 8.64008 4.10667 9.24008 4.94667 8.40008L8.40001 4.94675C9.22667 4.10675 8.64001 2.66675 7.45334 2.66675Z" fill="#193EFF"/>
<path d="M24.5467 29.3334H28C28.7333 29.3334 29.3333 28.7334 29.3333 28V24.5467C29.3333 23.36 27.8933 22.76 27.0533 23.6L23.6 27.0534C22.7733 27.8934 23.36 29.3334 24.5467 29.3334Z" fill="#193EFF"/>
</svg>
